<?xml version="1.0" encoding="UTF-8" standalone="no"?>
<svg
   viewBox="0 0 200 200"
   width="200"
   height="200"
   version="1.1"
   id="svg75"
   sodipodi:docname="knob_temp.svg"
   xml:space="preserve"
   inkscape:version="1.4.3 (0d15f75042, 2025-12-25)"
   xmlns:inkscape="http://www.inkscape.org/namespaces/inkscape"
   xmlns:sodipodi="http://sodipodi.sourceforge.net/DTD/sodipodi-0.dtd"
   xmlns="http://www.w3.org/2000/svg"
   xmlns:svg="http://www.w3.org/2000/svg">
  <sodipodi:namedview
   id="namedview75"
   pagecolor="#ffffff"
   bordercolor="#cccccc"
   borderopacity="1"
   inkscape:showpageshadow="0"
   inkscape:pageopacity="1"
   inkscape:pagecheckerboard="0"
   inkscape:deskcolor="#d1d1d1"
   inkscape:zoom="2.7337027"
   inkscape:cx="128.94599"
   inkscape:cy="132.60403"
   inkscape:window-width="1920"
   inkscape:window-height="1005"
   inkscape:window-x="0"
   inkscape:window-y="0"
   inkscape:window-maximized="1"
   inkscape:current-layer="svg75" />
  <defs
   id="defs2">
    <radialGradient
   id="gradienteVolumen"
   cx="100"
   cy="100"
   r="50"
   fx="80.000001"
   fy="80.000001"
   gradientUnits="userSpaceOnUse">
      <stop
   offset="0%"
   style="stop-color:white;stop-opacity:0.4"
   id="stop1" />
      <stop
   offset="100%"
   style="stop-color:black;stop-opacity:0.2"
   id="stop2" />
    </radialGradient>
    <line
   id="tickSmall"
   x1="100"
   y1="18"
   x2="100"
   y2="22"
   stroke="#ffffff"
   stroke-width="0.5"
   stroke-linecap="round" />
    <line
   id="tickBig"
   x1="100"
   y1="18"
   x2="100"
   y2="22"
   stroke="#ffffff"
   stroke-width="1.5"
   stroke-linecap="round" />
    <ellipse
   id="MuescaRedonda"
   cx="100"
   cy="38"
   rx="9"
   ry="12"
   fill="#222222" />
  </defs>
  <g
   id="KNOB_SYNTHI_V3_CLOCKWISE"
   transform="matrix(-0.88349451,0.51014176,-0.51005043,-0.88365269,239.37661,137.35811)">
    
    <ellipse
   cx="100.56273"
   cy="99.813904"
   fill="#ffffff"
   fill-opacity="0.15"
   stroke="none"
   id="circle2"
   inkscape:label="circle2"
   style="display:inline;fill:#a1a1a1;fill-opacity:0.525732;stroke-width:1"
   rx="98.318008"
   ry="97.683716"
   transform="matrix(0.99999826,0.00186631,-0.00563606,0.99998412,0,0)" />
    <g
   id="AgarreCompleto"
   transform="matrix(0.86206897,0,0,0.86206897,13.793103,13.793103)">
      <circle
   cx="100"
   cy="100"
   r="64.210373"
   fill="#222222"
   stroke="#000000"
   stroke-width="0.987852"
   id="circle3" />
      <use
   href="#MuescaRedonda"
   id="use3" />
      <use
   href="#MuescaRedonda"
   transform="rotate(30,100,100)"
   id="use4" />
      <use
   href="#MuescaRedonda"
   transform="rotate(60,100,100)"
   id="use5" />
      <use
   href="#MuescaRedonda"
   transform="rotate(90,100,100)"
   id="use6" />
      <use
   href="#MuescaRedonda"
   transform="rotate(120,100,100)"
   id="use7" />
      <use
   href="#MuescaRedonda"
   transform="rotate(150,100,100)"
   id="use8" />
      <use
   href="#MuescaRedonda"
   transform="rotate(180,100,100)"
   id="use9" />
      <use
   href="#MuescaRedonda"
   transform="rotate(-150,100,100)"
   id="use10" />
      <use
   href="#MuescaRedonda"
   transform="rotate(-120,100,100)"
   id="use11" />
      <use
   href="#MuescaRedonda"
   transform="rotate(-90,100,100)"
   id="use12" />
      <use
   href="#MuescaRedonda"
   transform="rotate(-60,100,100)"
   id="use13" />
      <use
   href="#MuescaRedonda"
   transform="rotate(-30,100,100)"
   id="use14" />
      <circle
   cx="100"
   cy="100"
   r="58"
   fill="none"
   stroke="#222222"
   stroke-width="4"
   id="circle14" />
    </g>
    <g
   id="EscalaSistema"
   transform="matrix(0,-1.179616,1.179616,0,-17.9616,217.9616)">
      <g
   id="Ticks"
   stroke="#ffffff"
   style="fill:#ffffff">
        <use
   href="#tickBig"
   id="use15"
   style="stroke:#ffffff" />
        <use
   href="#tickSmall"
   transform="rotate(6,100,100)"
   id="use16"
   style="stroke:#ffffff" />
        <use
   href="#tickSmall"
   transform="rotate(12,100,100)"
   id="use17"
   style="stroke:#ffffff" />
        <use
   href="#tickSmall"
   transform="rotate(18,100,100)"
   id="use18"
   style="stroke:#ffffff" />
        <use
   href="#tickSmall"
   transform="rotate(24,100,100)"
   id="use19"
   style="stroke:#ffffff" />
        <use
   href="#tickBig"
   transform="rotate(30.000001,100,100)"
   id="use20"
   style="stroke:#ffffff" />
        <use
   href="#tickSmall"
   transform="rotate(36,100,100)"
   id="use21"
   style="stroke:#ffffff" />
        <use
   href="#tickSmall"
   transform="rotate(42,100,100)"
   id="use22"
   style="stroke:#ffffff" />
        <use
   href="#tickSmall"
   transform="rotate(48,100,100)"
   id="use23"
   style="stroke:#ffffff" />
        <use
   href="#tickSmall"
   transform="rotate(54,100,100)"
   id="use24"
   style="stroke:#ffffff" />
        <use
   href="#tickBig"
   transform="rotate(60.000001,100,100)"
   id="use25"
   style="stroke:#ffffff" />
        <use
   href="#tickSmall"
   transform="rotate(66,100,100)"
   id="use26"
   style="stroke:#ffffff" />
        <use
   href="#tickSmall"
   transform="rotate(72,100,100)"
   id="use27"
   style="stroke:#ffffff" />
        <use
   href="#tickSmall"
   transform="rotate(78,100,100)"
   id="use28"
   style="stroke:#ffffff" />
        <use
   href="#tickSmall"
   transform="rotate(84,100,100)"
   id="use29"
   style="stroke:#ffffff" />
        <use
   href="#tickBig"
   transform="rotate(90,100,100)"
   id="use30"
   style="stroke:#ffffff" />
        <use
   href="#tickSmall"
   transform="rotate(96,100,100)"
   id="use31"
   style="stroke:#ffffff" />
        <use
   href="#tickSmall"
   transform="rotate(102,100,100)"
   id="use32"
   style="stroke:#ffffff" />
        <use
   href="#tickSmall"
   transform="rotate(108,100,100)"
   id="use33"
   style="stroke:#ffffff" />
        <use
   href="#tickSmall"
   transform="rotate(114,100,100)"
   id="use34"
   style="stroke:#ffffff" />
        <use
   href="#tickBig"
   transform="rotate(120,100,100)"
   id="use35"
   style="stroke:#ffffff" />
        <use
   href="#tickSmall"
   transform="rotate(126,100,100)"
   id="use36"
   style="stroke:#ffffff" />
        <use
   href="#tickSmall"
   transform="rotate(132,100,100)"
   id="use37"
   style="stroke:#ffffff" />
        <use
   href="#tickSmall"
   transform="rotate(138,100,100)"
   id="use38"
   style="stroke:#ffffff" />
        <use
   href="#tickSmall"
   transform="rotate(144,100,100)"
   id="use39"
   style="stroke:#ffffff" />
        <use
   href="#tickBig"
   transform="rotate(150,100,100)"
   id="use40"
   style="stroke:#ffffff" />
        <use
   href="#tickSmall"
   transform="rotate(156,100,100)"
   id="use41"
   style="stroke:#ffffff" />
        <use
   href="#tickSmall"
   transform="rotate(162,100,100)"
   id="use42"
   style="stroke:#ffffff" />
        <use
   href="#tickSmall"
   transform="rotate(168,100,100)"
   id="use43"
   style="stroke:#ffffff" />
        <use
   href="#tickSmall"
   transform="rotate(174,100,100)"
   id="use44"
   style="stroke:#ffffff" />
        <use
   href="#tickBig"
   transform="rotate(180,100,100)"
   id="use45"
   style="stroke:#ffffff" />
        <use
   href="#tickSmall"
   transform="rotate(-174,100,100)"
   id="use46"
   style="stroke:#ffffff" />
        <use
   href="#tickSmall"
   transform="rotate(-168,100,100)"
   id="use47"
   style="stroke:#ffffff" />
        <use
   href="#tickSmall"
   transform="rotate(-162,100,100)"
   id="use48"
   style="stroke:#ffffff" />
        <use
   href="#tickSmall"
   transform="rotate(-156,100,100)"
   id="use49"
   style="stroke:#ffffff" />
        <use
   href="#tickBig"
   transform="rotate(-150,100,100)"
   id="use50"
   style="stroke:#ffffff" />
        <use
   href="#tickSmall"
   transform="rotate(-144,100,100)"
   id="use51"
   style="stroke:#ffffff" />
        <use
   href="#tickSmall"
   transform="rotate(-138,100,100)"
   id="use52"
   style="stroke:#ffffff" />
        <use
   href="#tickSmall"
   transform="rotate(-132,100,100)"
   id="use53"
   style="stroke:#ffffff" />
        <use
   href="#tickSmall"
   transform="rotate(-126,100,100)"
   id="use54"
   style="stroke:#ffffff" />
        <use
   href="#tickBig"
   transform="rotate(-120,100,100)"
   id="use55"
   style="stroke:#ffffff" />
        <use
   href="#tickSmall"
   transform="rotate(-114,100,100)"
   id="use56"
   style="stroke:#ffffff" />
        <use
   href="#tickSmall"
   transform="rotate(-108,100,100)"
   id="use57"
   style="stroke:#ffffff" />
        <use
   href="#tickSmall"
   transform="rotate(-102,100,100)"
   id="use58"
   style="stroke:#ffffff" />
        <use
   href="#tickSmall"
   transform="rotate(-96,100,100)"
   id="use59"
   style="stroke:#ffffff" />
        <use
   href="#tickBig"
   transform="rotate(-90,100,100)"
   id="use60"
   style="stroke:#ffffff" />
        <use
   href="#tickSmall"
   transform="rotate(-84,100,100)"
   id="use61"
   style="stroke:#ffffff" />
        <use
   href="#tickSmall"
   transform="rotate(-78,100,100)"
   id="use62"
   style="stroke:#ffffff" />
        <use
   href="#tickSmall"
   transform="rotate(-72,100,100)"
   id="use63"
   style="stroke:#ffffff" />
        <use
   href="#tickSmall"
   transform="rotate(-66,100,100)"
   id="use64"
   style="stroke:#ffffff" />
        <use
   href="#tickBig"
   transform="rotate(-60.000001,100,100)"
   id="use65"
   style="stroke:#ffffff" />
      </g>
      <g
   id="NumerosRadiales"
   font-family="Arial, sans-serif"
   font-size="11px"
   font-weight="bold"
   fill="#ffffff"
   text-anchor="middle"
   transform="matrix(0.9198797,0,0,0.9198797,8.0120287,8.0120298)">
        <path
   d="m 97.495815,19.5603 h -1.50863 c -0.543107,0.422416 -2.112082,1.387939 -2.504326,1.584061 l 0.06035,1.523716 c 0.875005,-0.392243 1.644406,-0.980609 2.44398,-1.523716 v 8.855658 h 1.50863 z m 6.698315,-0.226295 c -3.00217,0 -3.50002,3.183209 -3.50002,5.446154 0,2.262945 0.49785,5.446155 3.50002,5.446155 3.00217,0 3.50002,-3.18321 3.50002,-5.446155 0,-2.262945 -0.49785,-5.446154 -3.50002,-5.446154 z m 0,1.297422 c 1.96122,0 1.91596,2.806052 1.91596,4.148732 0,1.297422 0.0302,4.148733 -1.91596,4.148733 -1.94613,0 -1.91596,-2.851311 -1.91596,-4.148733 0,-1.34268 -0.0453,-4.148732 1.91596,-4.148732 z"
   id="text65"
   style="font-weight:500;font-size:15.0863px;font-family:'Univers 55';-inkscape-font-specification:'Univers 55, Medium'"
   aria-label="10" />
        <path
   d="m 138.39798,-40.759636 c 0,1.267249 -0.78449,2.172427 -2.03665,2.172427 -1.26725,0 -1.81036,-0.890092 -1.81036,-2.172427 0,-1.221991 0.69397,-2.006478 1.85562,-2.006478 1.32759,0 1.99139,0.905178 1.99139,2.006478 z m -2.02157,-3.3039 c -2.08191,0 -3.50002,1.568975 -3.4095,3.54528 0.0905,1.840529 1.25216,3.168123 3.09269,3.228469 1.02587,0.03017 1.93105,-0.362072 2.32329,-1.372854 l 0.0151,0.03017 c -0.0151,1.734924 -0.13578,4.163819 -2.2026,4.163819 -0.92027,0 -1.56898,-0.452589 -1.55389,-1.403026 h -1.58406 c 0,1.689665 1.35777,2.700448 2.972,2.700448 3.19829,0 3.95261,-3.168123 3.95261,-5.808226 0,-2.594844 -0.57328,-5.084083 -3.60563,-5.084083 z"
   id="text66"
   style="font-weight:500;font-size:15.0863px;font-family:'Univers 55';-inkscape-font-specification:'Univers 55, Medium'"
   transform="rotate(30)"
   aria-label="9" />
        <path
   d="m 136.60277,-111.49065 c 1.14656,0 2.17243,0.61854 2.17243,1.91596 0,1.37285 -1.05604,2.15734 -2.17243,2.15734 -1.26725,0 -2.17243,-1.05604 -2.17243,-2.15734 0,-1.11639 1.04096,-1.91596 2.17243,-1.91596 z m 2.02156,-2.94183 c 0,1.08621 -1.02586,1.64441 -2.02156,1.64441 -1.05604,0 -1.96122,-0.60346 -1.96122,-1.71984 0,-1.04096 1.05604,-1.71984 1.96122,-1.71984 1.13147,0 2.02156,0.70906 2.02156,1.79527 z m -3.31898,2.33838 c -1.38794,0.36207 -2.30821,1.25216 -2.30821,2.7457 0,2.03665 1.84053,2.972 3.60563,2.972 1.88579,0 3.60563,-1.04095 3.60563,-3.0776 0,-1.47846 -0.87501,-2.35347 -2.29312,-2.65519 v -0.0302 0.0151 c 1.28233,-0.16595 2.14225,-1.19182 2.14225,-2.47415 0,-1.88579 -1.91596,-2.67028 -3.45476,-2.67028 -1.78018,0 -3.39442,1.04096 -3.39442,2.67028 0,1.31251 0.79958,2.26294 2.097,2.47415 z"
   id="text67"
   style="font-weight:500;font-size:15.0863px;font-family:'Univers 55';-inkscape-font-specification:'Univers 55, Medium'"
   transform="rotate(60)"
   aria-label="8" />
        <path
   d="m 96.33413,-179.14253 h 5.43107 l -3.831922,9.1423 h 1.463371 l 3.831921,-9.1423 v -1.29742 h -6.89444 z"
   id="text68"
   style="font-weight:500;font-size:15.0863px;font-family:'Univers 55';-inkscape-font-specification:'Univers 55, Medium'"
   transform="rotate(90)"
   aria-label="7" />
        <path
   d="m 34.762062,-209.9369 c 0,-1.17673 0.784488,-2.21769 2.03665,-2.21769 1.418113,0 1.91596,1.02587 1.91596,2.30821 0,1.22199 -0.64871,2.17242 -1.961219,2.17242 -1.327594,0 -1.991391,-1.07112 -1.991391,-2.26294 z m 1.991391,3.56037 c 2.08191,0 3.545281,-1.56898 3.545281,-3.62072 0,-1.91596 -1.191818,-3.45476 -3.198296,-3.45476 -1.056041,0 -1.870701,0.49785 -2.308203,1.31251 l -0.03017,-0.0302 c 0.01509,-1.37286 0.135777,-3.80175 2.2026,-3.80175 0.920264,0 1.568975,0.45259 1.553889,1.40302 h 1.584061 c 0,-1.68966 -1.357767,-2.70044 -2.972001,-2.70044 -3.198296,0 -3.952611,3.16812 -3.952611,5.80822 0,2.59485 0.543107,5.08409 3.575453,5.08409 z"
   id="text69"
   style="font-weight:500;font-size:15.0863px;font-family:'Univers 55';-inkscape-font-specification:'Univers 55, Medium'"
   transform="rotate(120)"
   aria-label="6" />
        <path
   d="m -39.544431,-217.0425 -0.271553,6.21555 h 1.372853 c 0.331899,-1.07112 0.995696,-1.34268 2.066823,-1.34268 1.221991,0 1.734925,1.08622 1.734925,2.14226 0,1.19181 -0.528021,2.35346 -1.885788,2.35346 -0.93535,0 -1.810356,-0.42242 -1.840528,-1.40303 h -1.584062 c 0.09052,1.84053 1.418113,2.70045 3.153037,2.70045 2.127168,0 3.741402,-1.4332 3.741402,-3.59054 0,-1.85561 -1.146558,-3.50002 -3.122864,-3.50002 -1.010782,0 -1.538802,0.25647 -2.262945,0.93535 l 0.196122,-3.21338 h 4.571149 v -1.29742 z"
   id="text70"
   style="font-weight:500;font-size:15.0863px;font-family:'Univers 55';-inkscape-font-specification:'Univers 55, Medium'"
   transform="rotate(150)"
   aria-label="5" />
        <path
   d="m -98.974267,-173.48521 h -3.590543 l 3.56037,-5.37072 h 0.03017 z m 0,3.48494 h 1.357767 v -2.27804 h 1.523716 v -1.2069 H -97.6165 v -6.95478 h -1.674579 l -4.435371,6.57762 v 1.58406 h 4.752183 z"
   id="text71"
   style="font-weight:500;font-size:15.0863px;font-family:'Univers 55';-inkscape-font-specification:'Univers 55, Medium'"
   transform="scale(-1)"
   aria-label="4" />
        <path
   d="m -137.58331,-111.32468 c 1.47845,-0.0905 2.92674,0.19612 2.92674,1.9763 0,1.08622 -1.04096,1.67458 -2.08191,1.67458 -1.05604,0 -1.93105,-0.57328 -1.90088,-1.61423 h -1.58406 c -0.0302,1.90087 1.47846,2.91166 3.25864,2.91166 2.2026,0 3.89227,-1.07113 3.89227,-3.03235 0,-1.34268 -0.90518,-2.41381 -2.27803,-2.5345 v -0.0302 c 1.13147,-0.21121 2.12717,-1.16165 2.12717,-2.35346 0,-2.05174 -1.73493,-2.94183 -3.57546,-2.94183 -1.67458,0 -3.28881,1.05604 -3.25864,2.88148 h 1.58406 c 0.0302,-0.98061 0.84484,-1.58406 1.78019,-1.58406 1.05604,0 1.88578,0.39224 1.88578,1.55389 0,1.56897 -1.50863,1.88579 -2.77587,1.79527 z"
   id="text72"
   style="font-weight:500;font-size:15.0863px;font-family:'Univers 55';-inkscape-font-specification:'Univers 55, Medium'"
   transform="rotate(-150)"
   aria-label="3" />
        <path
   d="m -133.35921,-34.694974 h -4.76727 v -0.03017 c 0.96552,-0.859919 2.7457,-2.640102 3.6358,-3.786661 0.75431,-0.950437 1.1013,-1.50863 1.1013,-2.760793 0,-1.689666 -1.28234,-2.790966 -3.27373,-2.790966 -1.82544,0 -3.1983,1.206904 -3.18321,3.077606 h 1.58406 c -0.0603,-0.995696 0.57328,-1.780184 1.61423,-1.780184 1.05605,0 1.67458,0.528021 1.67458,1.614234 0,0.784488 -0.25646,1.312508 -0.72414,1.91596 -1.29742,1.629321 -2.82114,3.01726 -4.29959,4.465545 v 1.372854 h 6.63797 z"
   id="text73"
   style="font-weight:500;font-size:15.0863px;font-family:'Univers 55';-inkscape-font-specification:'Univers 55, Medium'"
   transform="rotate(-120)"
   aria-label="2" />
        <path
   d="m -98.310432,19.560303 h -1.50863 c -0.543108,0.422417 -2.112078,1.38794 -2.504328,1.584062 l 0.0603,1.523716 c 0.875,-0.392244 1.6444,-0.980609 2.443978,-1.523716 v 8.855658 h 1.50863 z"
   id="text74"
   style="font-weight:500;font-size:15.0863px;font-family:'Univers 55';-inkscape-font-specification:'Univers 55, Medium'"
   transform="rotate(-90)"
   aria-label="1" />
        <path
   d="m -36.602587,55.936617 c -3.002173,0 -3.500021,3.183209 -3.500021,5.446154 0,2.262945 0.497848,5.446154 3.500021,5.446154 3.002174,0 3.500022,-3.183209 3.500022,-5.446154 0,-2.262945 -0.497848,-5.446154 -3.500022,-5.446154 z m 0,1.297421 c 1.961219,0 1.91596,2.806052 1.91596,4.148733 0,1.297422 0.03017,4.148732 -1.91596,4.148732 -1.946132,0 -1.91596,-2.85131 -1.91596,-4.148732 0,-1.342681 -0.04526,-4.148733 1.91596,-4.148733 z"
   id="text75"
   style="font-weight:500;font-size:15.0863px;font-family:'Univers 55';-inkscape-font-specification:'Univers 55, Medium'"
   transform="rotate(-60)"
   aria-label="0" />
      </g>
    </g>
    
    
  </g>
</svg>
