<svg viewBox="0 0 200 200" width="200" height="200" xmlns="http://www.w3.org/2000/svg">
  <defs>
    <line id="tickSmall" x1="100" y1="18" x2="100" y2="22" stroke="#ffffff" stroke-width="0.5" stroke-linecap="round"/>
    <line id="tickBig" x1="100" y1="18" x2="100" y2="22" stroke="#ffffff" stroke-width="1.5" stroke-linecap="round"/>
    <ellipse id="MuescaRedonda" cx="100" cy="38" rx="9" ry="12" fill="#222222"/>
  </defs>
  <!-- Orientación: posición 0 (valor mínimo). CSS rota 0-300° para ir de 0 a 10. -->
  <g id="KNOB_SYNTHI_V3_CLOCKWISE" transform="rotate(150.00172,99.419531,99.033762)">
    <!-- Cuerpo exterior del knob -->
    <circle cx="100" cy="100" r="98" fill="#a1a1a1" fill-opacity="0.885167" stroke="none"/>
    <!-- Agarre con muescas -->
    <g id="AgarreCompleto" transform="matrix(0.86206897,0,0,0.86206897,13.793103,13.793103)">
      <circle cx="100" cy="100" r="64.210373" fill="#222222" stroke="#000000" stroke-width="0.987852"/>
      <use href="#MuescaRedonda"/>
      <use href="#MuescaRedonda" transform="rotate(30,100,100)"/>
      <use href="#MuescaRedonda" transform="rotate(60,100,100)"/>
      <use href="#MuescaRedonda" transform="rotate(90,100,100)"/>
      <use href="#MuescaRedonda" transform="rotate(120,100,100)"/>
      <use href="#MuescaRedonda" transform="rotate(150,100,100)"/>
      <use href="#MuescaRedonda" transform="rotate(180,100,100)"/>
      <use href="#MuescaRedonda" transform="rotate(-150,100,100)"/>
      <use href="#MuescaRedonda" transform="rotate(-120,100,100)"/>
      <use href="#MuescaRedonda" transform="rotate(-90,100,100)"/>
      <use href="#MuescaRedonda" transform="rotate(-60,100,100)"/>
      <use href="#MuescaRedonda" transform="rotate(-30,100,100)"/>
      <circle cx="100" cy="100" r="58" fill="none" stroke="#222222" stroke-width="4"/>
    </g>
    <!-- Escala numérica y ticks -->
    <g id="EscalaSistema" transform="matrix(0,-1.179616,1.179616,0,-17.9616,217.9616)">
      <g id="Ticks" stroke="#ffffff" fill="#ffffff">
        <use href="#tickBig" style="stroke:#ffffff"/>
        <use href="#tickSmall" transform="rotate(6,100,100)" style="stroke:#ffffff"/>
        <use href="#tickSmall" transform="rotate(12,100,100)" style="stroke:#ffffff"/>
        <use href="#tickSmall" transform="rotate(18,100,100)" style="stroke:#ffffff"/>
        <use href="#tickSmall" transform="rotate(24,100,100)" style="stroke:#ffffff"/>
        <use href="#tickBig" transform="rotate(30.000001,100,100)" style="stroke:#ffffff"/>
        <use href="#tickSmall" transform="rotate(36,100,100)" style="stroke:#ffffff"/>
        <use href="#tickSmall" transform="rotate(42,100,100)" style="stroke:#ffffff"/>
        <use href="#tickSmall" transform="rotate(48,100,100)" style="stroke:#ffffff"/>
        <use href="#tickSmall" transform="rotate(54,100,100)" style="stroke:#ffffff"/>
        <use href="#tickBig" transform="rotate(60.000001,100,100)" style="stroke:#ffffff"/>
        <use href="#tickSmall" transform="rotate(66,100,100)" style="stroke:#ffffff"/>
        <use href="#tickSmall" transform="rotate(72,100,100)" style="stroke:#ffffff"/>
        <use href="#tickSmall" transform="rotate(78,100,100)" style="stroke:#ffffff"/>
        <use href="#tickSmall" transform="rotate(84,100,100)" style="stroke:#ffffff"/>
        <use href="#tickBig" transform="rotate(90,100,100)" style="stroke:#ffffff"/>
        <use href="#tickSmall" transform="rotate(96,100,100)" style="stroke:#ffffff"/>
        <use href="#tickSmall" transform="rotate(102,100,100)" style="stroke:#ffffff"/>
        <use href="#tickSmall" transform="rotate(108,100,100)" style="stroke:#ffffff"/>
        <use href="#tickSmall" transform="rotate(114,100,100)" style="stroke:#ffffff"/>
        <use href="#tickBig" transform="rotate(120,100,100)" style="stroke:#ffffff"/>
        <use href="#tickSmall" transform="rotate(126,100,100)" style="stroke:#ffffff"/>
        <use href="#tickSmall" transform="rotate(132,100,100)" style="stroke:#ffffff"/>
        <use href="#tickSmall" transform="rotate(138,100,100)" style="stroke:#ffffff"/>
        <use href="#tickSmall" transform="rotate(144,100,100)" style="stroke:#ffffff"/>
        <use href="#tickBig" transform="rotate(150,100,100)" style="stroke:#ffffff"/>
        <use href="#tickSmall" transform="rotate(156,100,100)" style="stroke:#ffffff"/>
        <use href="#tickSmall" transform="rotate(162,100,100)" style="stroke:#ffffff"/>
        <use href="#tickSmall" transform="rotate(168,100,100)" style="stroke:#ffffff"/>
        <use href="#tickSmall" transform="rotate(174,100,100)" style="stroke:#ffffff"/>
        <use href="#tickBig" transform="rotate(180,100,100)" style="stroke:#ffffff"/>
        <use href="#tickSmall" transform="rotate(-174,100,100)" style="stroke:#ffffff"/>
        <use href="#tickSmall" transform="rotate(-168,100,100)" style="stroke:#ffffff"/>
        <use href="#tickSmall" transform="rotate(-162,100,100)" style="stroke:#ffffff"/>
        <use href="#tickSmall" transform="rotate(-156,100,100)" style="stroke:#ffffff"/>
        <use href="#tickBig" transform="rotate(-150,100,100)" style="stroke:#ffffff"/>
        <use href="#tickSmall" transform="rotate(-144,100,100)" style="stroke:#ffffff"/>
        <use href="#tickSmall" transform="rotate(-138,100,100)" style="stroke:#ffffff"/>
        <use href="#tickSmall" transform="rotate(-132,100,100)" style="stroke:#ffffff"/>
        <use href="#tickSmall" transform="rotate(-126,100,100)" style="stroke:#ffffff"/>
        <use href="#tickBig" transform="rotate(-120,100,100)" style="stroke:#ffffff"/>
        <use href="#tickSmall" transform="rotate(-114,100,100)" style="stroke:#ffffff"/>
        <use href="#tickSmall" transform="rotate(-108,100,100)" style="stroke:#ffffff"/>
        <use href="#tickSmall" transform="rotate(-102,100,100)" style="stroke:#ffffff"/>
        <use href="#tickSmall" transform="rotate(-96,100,100)" style="stroke:#ffffff"/>
        <use href="#tickBig" transform="rotate(-90,100,100)" style="stroke:#ffffff"/>
        <use href="#tickSmall" transform="rotate(-84,100,100)" style="stroke:#ffffff"/>
        <use href="#tickSmall" transform="rotate(-78,100,100)" style="stroke:#ffffff"/>
        <use href="#tickSmall" transform="rotate(-72,100,100)" style="stroke:#ffffff"/>
        <use href="#tickSmall" transform="rotate(-66,100,100)" style="stroke:#ffffff"/>
        <use href="#tickBig" transform="rotate(-60.000001,100,100)" style="stroke:#ffffff"/>
      </g>
      <g id="NumerosRadiales" font-family="'Microgramma Extended', Arial, sans-serif" font-size="11px" font-weight="bold" fill="#ffffff" text-anchor="middle" transform="matrix(0.9198797,0,0,0.9198797,8.0120287,8.0120298)">
        <text style="font-weight:bold;font-size:15.0863px;font-family:'Microgramma Extended',Arial,sans-serif;fill:#fff" x="100.00014" y="30.000019">10</text>
        <text transform="rotate(30)" style="font-weight:bold;font-size:15.0863px;font-family:'Microgramma Extended',Arial,sans-serif;fill:#fff" x="136.60271" y="-33.397522">9</text>
        <text transform="rotate(60)" style="font-weight:bold;font-size:15.0863px;font-family:'Microgramma Extended',Arial,sans-serif;fill:#fff" x="136.60277" y="-106.60269">8</text>
        <text transform="rotate(90)" style="font-weight:bold;font-size:15.0863px;font-family:'Microgramma Extended',Arial,sans-serif;fill:#fff" x="100.0001" y="-170.00023">7</text>
        <text transform="rotate(120)" style="font-weight:bold;font-size:15.0863px;font-family:'Microgramma Extended',Arial,sans-serif;fill:#fff" x="36.602589" y="-206.60283">6</text>
        <text transform="rotate(150)" style="font-weight:bold;font-size:15.0863px;font-family:'Microgramma Extended',Arial,sans-serif;fill:#fff" x="-36.602604" y="-206.60278">5</text>
        <text transform="scale(-1)" style="font-weight:bold;font-size:15.0863px;font-family:'Microgramma Extended',Arial,sans-serif;fill:#fff" x="-100.00014" y="-170.00027">4</text>
        <text transform="rotate(-150)" style="font-weight:bold;font-size:15.0863px;font-family:'Microgramma Extended',Arial,sans-serif;fill:#fff" x="-136.60271" y="-106.60267">3</text>
        <text transform="rotate(-120)" style="font-weight:bold;font-size:15.0863px;font-family:'Microgramma Extended',Arial,sans-serif;fill:#fff" x="-136.60277" y="-33.397552">2</text>
        <text transform="rotate(-90)" style="font-weight:bold;font-size:15.0863px;font-family:'Microgramma Extended',Arial,sans-serif;fill:#fff" x="-100.0001" y="30.000023">1</text>
        <text transform="rotate(-60)" style="font-weight:bold;font-size:15.0863px;font-family:'Microgramma Extended',Arial,sans-serif;fill:#fff" x="-36.602589" y="66.602631">0</text>
      </g>
    </g>
  </g>
</svg>
