<svg viewBox="0 0 200 200" width="200" height="200" xmlns="http://www.w3.org/2000/svg"><style>.sswwlc1{stop-color:white;stop-opacity:0.4}.sswwlc2{stop-color:black;stop-opacity:0.2}.sswwlc3{display:inline;fill:#a1a1a1;fill-opacity:0.53}.sswwlc4{fill:#fff}.sswwlc5{stroke:#fff}.sswwlc6{fill:#fff;font-family:'Univers 55';font-size:20.46px;font-stretch:normal;font-style:normal;font-variant:normal;font-weight:500;stroke-width:0.93}.sswwlc7{stroke-width:0.93}</style><defs><radialGradient cx="100" cy="100" r="50" fx="80.000001" fy="80.000001" gradientUnits="userSpaceOnUse"><stop offset="0%" class="sswwlc1"/><stop offset="100%" class="sswwlc2"/></radialGradient><line id="tickSmall" x1="100" y1="18" x2="100" y2="22" stroke="#ffffff" stroke-width="0.5" stroke-linecap="round"/><line id="tickBig" x1="100" y1="18" x2="100" y2="22" stroke="#ffffff" stroke-width="1.5" stroke-linecap="round"/><ellipse id="MuescaRedonda" cx="100" cy="38" rx="9" ry="12" fill="#222222"/></defs><g transform="matrix(-0.86711416,0.49849681,-0.49852219,-0.86665437,236.56366,136.81576)"><circle cx="126.02" cy="-64.18" r="100" fill="#ffffff" fill-opacity="0.15" stroke="none" class="sswwlc3" transform="rotate(71.987183)"/><g transform="matrix(0.86206897,0,0,0.86206897,13.793103,13.793103)"><circle cx="100" cy="100" r="64.21" fill="#222222" stroke="#000000" stroke-width="0.987852"/><use href="#MuescaRedonda"/><use href="#MuescaRedonda" transform="rotate(30,100,100)"/><use href="#MuescaRedonda" transform="rotate(60,100,100)"/><use href="#MuescaRedonda" transform="rotate(90,100,100)"/><use href="#MuescaRedonda" transform="rotate(120,100,100)"/><use href="#MuescaRedonda" transform="rotate(150,100,100)"/><use href="#MuescaRedonda" transform="rotate(180,100,100)"/><use href="#MuescaRedonda" transform="rotate(-150,100,100)"/><use href="#MuescaRedonda" transform="rotate(-120,100,100)"/><use href="#MuescaRedonda" transform="rotate(-90,100,100)"/><use href="#MuescaRedonda" transform="rotate(-60,100,100)"/><use href="#MuescaRedonda" transform="rotate(-30,100,100)"/><circle cx="100" cy="100" r="58" fill="none" stroke="#222222" stroke-width="4"/></g><g transform="matrix(0,-1.179616,1.179616,0,-17.9616,217.9616)"><g stroke="#ffffff" class="sswwlc4"><use href="#tickBig" class="sswwlc5"/><use href="#tickSmall" transform="rotate(6,100,100)" class="sswwlc5"/><use href="#tickSmall" transform="rotate(12,100,100)" class="sswwlc5"/><use href="#tickSmall" transform="rotate(18,100,100)" class="sswwlc5"/><use href="#tickSmall" transform="rotate(24,100,100)" class="sswwlc5"/><use href="#tickBig" transform="rotate(30.000001,100,100)" class="sswwlc5"/><use href="#tickSmall" transform="rotate(36,100,100)" class="sswwlc5"/><use href="#tickSmall" transform="rotate(42,100,100)" class="sswwlc5"/><use href="#tickSmall" transform="rotate(48,100,100)" class="sswwlc5"/><use href="#tickSmall" transform="rotate(54,100,100)" class="sswwlc5"/><use href="#tickBig" transform="rotate(60.000001,100,100)" class="sswwlc5"/><use href="#tickSmall" transform="rotate(66,100,100)" class="sswwlc5"/><use href="#tickSmall" transform="rotate(72,100,100)" class="sswwlc5"/><use href="#tickSmall" transform="rotate(78,100,100)" class="sswwlc5"/><use href="#tickSmall" transform="rotate(84,100,100)" class="sswwlc5"/><use href="#tickBig" transform="rotate(90,100,100)" class="sswwlc5"/><use href="#tickSmall" transform="rotate(96,100,100)" class="sswwlc5"/><use href="#tickSmall" transform="rotate(102,100,100)" class="sswwlc5"/><use href="#tickSmall" transform="rotate(108,100,100)" class="sswwlc5"/><use href="#tickSmall" transform="rotate(114,100,100)" class="sswwlc5"/><use href="#tickBig" transform="rotate(120,100,100)" class="sswwlc5"/><use href="#tickSmall" transform="rotate(126,100,100)" class="sswwlc5"/><use href="#tickSmall" transform="rotate(132,100,100)" class="sswwlc5"/><use href="#tickSmall" transform="rotate(138,100,100)" class="sswwlc5"/><use href="#tickSmall" transform="rotate(144,100,100)" class="sswwlc5"/><use href="#tickBig" transform="rotate(150,100,100)" class="sswwlc5"/><use href="#tickSmall" transform="rotate(156,100,100)" class="sswwlc5"/><use href="#tickSmall" transform="rotate(162,100,100)" class="sswwlc5"/><use href="#tickSmall" transform="rotate(168,100,100)" class="sswwlc5"/><use href="#tickSmall" transform="rotate(174,100,100)" class="sswwlc5"/><use href="#tickBig" transform="rotate(180,100,100)" class="sswwlc5"/><use href="#tickSmall" transform="rotate(-174,100,100)" class="sswwlc5"/><use href="#tickSmall" transform="rotate(-168,100,100)" class="sswwlc5"/><use href="#tickSmall" transform="rotate(-162,100,100)" class="sswwlc5"/><use href="#tickSmall" transform="rotate(-156,100,100)" class="sswwlc5"/><use href="#tickBig" transform="rotate(-150,100,100)" class="sswwlc5"/><use href="#tickSmall" transform="rotate(-144,100,100)" class="sswwlc5"/><use href="#tickSmall" transform="rotate(-138,100,100)" class="sswwlc5"/><use href="#tickSmall" transform="rotate(-132,100,100)" class="sswwlc5"/><use href="#tickSmall" transform="rotate(-126,100,100)" class="sswwlc5"/><use href="#tickBig" transform="rotate(-120,100,100)" class="sswwlc5"/><use href="#tickSmall" transform="rotate(-114,100,100)" class="sswwlc5"/><use href="#tickSmall" transform="rotate(-108,100,100)" class="sswwlc5"/><use href="#tickSmall" transform="rotate(-102,100,100)" class="sswwlc5"/><use href="#tickSmall" transform="rotate(-96,100,100)" class="sswwlc5"/><use href="#tickBig" transform="rotate(-90,100,100)" class="sswwlc5"/><use href="#tickSmall" transform="rotate(-84,100,100)" class="sswwlc5"/><use href="#tickSmall" transform="rotate(-78,100,100)" class="sswwlc5"/><use href="#tickSmall" transform="rotate(-72,100,100)" class="sswwlc5"/><use href="#tickSmall" transform="rotate(-66,100,100)" class="sswwlc5"/><use href="#tickBig" transform="rotate(-60.000001,100,100)" class="sswwlc5"/></g><g font-family="Arial, sans-serif" font-size="11px" font-weight="bold" fill="#ffffff" text-anchor="middle" transform="matrix(0.9198797,0,0,0.9198797,8.0120287,8.0120298)"><text class="sswwlc6" x="100.01" y="35.24"><tspan x="100.01" y="35.24" class="sswwlc7">5</tspan></text><text transform="rotate(30)" class="sswwlc6" x="136.61" y="-28.16"><tspan x="136.61" y="-28.16" class="sswwlc7">4</tspan></text><text transform="rotate(60)" class="sswwlc6" x="136.61" y="-101.37"><tspan x="136.61" y="-101.37" class="sswwlc7">3</tspan></text><text transform="rotate(90)" class="sswwlc6" x="100" y="-164.77"><tspan x="100" y="-164.77" class="sswwlc7">2</tspan></text><text transform="rotate(120)" class="sswwlc6" x="36.6" y="-201.37"><tspan x="36.6" y="-201.37" class="sswwlc7">1</tspan></text><text transform="rotate(150)" class="sswwlc6" x="-36.61" y="-201.37"><tspan x="-36.61" y="-201.37" class="sswwlc7">0</tspan></text><text transform="scale(-1)" class="sswwlc6" x="-100.01" y="-164.76"><tspan x="-100.01" y="-164.76" class="sswwlc7">-1</tspan></text><text transform="rotate(-150)" class="sswwlc6" x="-136.61" y="-101.36"><tspan x="-136.61" y="-101.36" class="sswwlc7">-2</tspan></text><text transform="rotate(-120)" class="sswwlc6" x="-136.61" y="-28.15"><tspan x="-136.61" y="-28.15" class="sswwlc7">-3</tspan></text><text transform="rotate(-90)" class="sswwlc6" x="-100" y="35.25"><tspan x="-100" y="35.25" class="sswwlc7">-4</tspan></text><text transform="rotate(-60)" class="sswwlc6" x="-36.6" y="71.85"><tspan x="-36.6" y="71.85" class="sswwlc7">-5</tspan></text></g></g></g></svg>