<svg viewBox="10 10 280 280" width="280" height="280" xmlns="http://www.w3.org/2000/svg"><style>.s23z7c1{display:inline}.s23z7c2{font-family:'Univers 55';font-size:20px;font-stretch:normal;font-style:normal;font-variant:normal;font-weight:normal}.s23z7c3{font-family:'Univers 55';font-size:20px;font-stretch:normal;font-style:normal;font-variant:normal;font-weight:normal;text-anchor:end}.s23z7c4{display:none}.s23z7c5{display:inline;fill:#666}.s23z7c6{display:inline;fill:url(#vd-cap)}.s23z7c7{fill:#000;stroke-width:0.18}.s23z7c8{fill:#1a1a1a}</style><defs><radialGradient id="vd-metal" cx="50" cy="50" r="50"><stop offset="0%" stop-color="#c8c8c8"/><stop offset="100%" stop-color="#b0b0b0"/></radialGradient><radialGradient id="vd-bevel" cx="50" cy="50" r="50"><stop offset="88%" stop-color="#000000" stop-opacity="0"/><stop offset="94%" stop-color="rgb(255,255,255)" stop-opacity="0.35"/><stop offset="100%" stop-color="rgb(0,0,0)" stop-opacity="0.15"/></radialGradient><linearGradient x1="0" y1="0" x2="100" y2="100"><stop offset="0%" stop-color="rgb(255,255,255)" stop-opacity="0.55"/><stop offset="12%" stop-color="rgb(255,255,255)" stop-opacity="0.35"/><stop offset="30%" stop-color="rgb(255,255,255)" stop-opacity="0.12"/><stop offset="48%" stop-color="#000000" stop-opacity="0"/><stop offset="65%" stop-color="rgb(0,0,0)" stop-opacity="0.05"/><stop offset="82%" stop-color="rgb(0,0,0)" stop-opacity="0.12"/><stop offset="100%" stop-color="rgb(0,0,0)" stop-opacity="0.20"/></linearGradient><linearGradient x1="100" y1="0" x2="0" y2="100"><stop offset="0%" stop-color="rgb(255,255,255)" stop-opacity="0.18"/><stop offset="20%" stop-color="rgb(255,255,255)" stop-opacity="0.06"/><stop offset="45%" stop-color="#000000" stop-opacity="0"/><stop offset="70%" stop-color="rgb(0,0,0)" stop-opacity="0.04"/><stop offset="100%" stop-color="rgb(0,0,0)" stop-opacity="0.10"/></linearGradient><radialGradient id="vd-coneInner" cx="50" cy="50" r="50"><stop offset="55%" stop-color="rgb(0,0,0)" stop-opacity="0.10"/><stop offset="68%" stop-color="#000000" stop-opacity="0"/><stop offset="100%" stop-color="#000000" stop-opacity="0"/></radialGradient><radialGradient cx="154.08" cy="128.88" r="46.31" gradientTransform="scale(0.93047881,1.0747155)" fx="154.08196" fy="128.88377" gradientUnits="userSpaceOnUse"><stop offset="0%" stop-color="#404040"/><stop offset="50%" stop-color="#2a2a2a"/><stop offset="100%" stop-color="#151515"/></radialGradient><radialGradient id="vd-cap" cx="147.08" cy="145.62" r="21.9" fx="147.08" fy="145.62" gradientUnits="userSpaceOnUse"><stop offset="0%" stop-color="#333"/><stop offset="100%" stop-color="#111"/></radialGradient><mask id="vd-ringMask"><rect width="300" height="300" fill="white"/><circle cx="150" cy="150" r="96" fill="black"/></mask><line id="vd-majTick" x1="150" y1="56" x2="150" y2="67" stroke="#ffffff" stroke-width="1.8" stroke-linecap="round"/><line id="vd-minTick" x1="150" y1="56" x2="150" y2="62" stroke="#cccccc" stroke-width="0.8" stroke-linecap="round"/></defs><g id="vd-rotor" class="s23z7c1"><g class="s23z7c1"><g><circle cx="150" cy="150" r="96" fill="#1a1a1a" class="s23z7c1"/><circle cx="150" cy="150" r="96" fill="none" stroke="#2a2a2a" stroke-width="0.5" class="s23z7c1"/><circle cx="150" cy="150" r="95" fill="none" stroke="#ffffff" stroke-opacity="0.04" stroke-width="0.8" class="s23z7c1"/></g><g><use href="#vd-minTick"/><use href="#vd-majTick" transform="rotate(36,150,150)"/><use href="#vd-majTick" transform="rotate(72,150,150)"/><use href="#vd-majTick" transform="rotate(108,150,150)"/><use href="#vd-majTick" transform="rotate(144,150,150)"/><use href="#vd-majTick" transform="rotate(180,150,150)"/><use href="#vd-majTick" transform="rotate(-144,150,150)"/><use href="#vd-majTick" transform="rotate(-108,150,150)"/><use href="#vd-majTick" transform="rotate(-72,150,150)"/><use href="#vd-majTick" transform="rotate(-36,150,150)"/><use href="#vd-minTick" transform="rotate(7.2,150,150)"/><use href="#vd-minTick" transform="rotate(14.4,150,150)"/><use href="#vd-minTick" transform="rotate(21.6,150,150)"/><use href="#vd-minTick" transform="rotate(28.8,150,150)"/><use href="#vd-minTick" transform="rotate(43.2,150,150)"/><use href="#vd-minTick" transform="rotate(50.4,150,150)"/><use href="#vd-minTick" transform="rotate(57.6,150,150)"/><use href="#vd-minTick" transform="rotate(64.8,150,150)"/><use href="#vd-minTick" transform="rotate(79.2,150,150)"/><use href="#vd-minTick" transform="rotate(86.4,150,150)"/><use href="#vd-minTick" transform="rotate(93.6,150,150)"/><use href="#vd-minTick" transform="rotate(100.8,150,150)"/><use href="#vd-minTick" transform="rotate(115.2,150,150)"/><use href="#vd-minTick" transform="rotate(122.4,150,150)"/><use href="#vd-minTick" transform="rotate(129.6,150,150)"/><use href="#vd-minTick" transform="rotate(136.8,150,150)"/><use href="#vd-minTick" transform="rotate(151.2,150,150)"/><use href="#vd-minTick" transform="rotate(158.4,150,150)"/><use href="#vd-minTick" transform="rotate(165.6,150,150)"/><use href="#vd-minTick" transform="rotate(172.8,150,150)"/><use href="#vd-minTick" transform="rotate(-172.8,150,150)"/><use href="#vd-minTick" transform="rotate(-165.6,150,150)"/><use href="#vd-minTick" transform="rotate(-158.4,150,150)"/><use href="#vd-minTick" transform="rotate(-151.2,150,150)"/><use href="#vd-minTick" transform="rotate(-136.8,150,150)"/><use href="#vd-minTick" transform="rotate(-129.6,150,150)"/><use href="#vd-minTick" transform="rotate(-122.4,150,150)"/><use href="#vd-minTick" transform="rotate(-115.2,150,150)"/><use href="#vd-minTick" transform="rotate(-100.8,150,150)"/><use href="#vd-minTick" transform="rotate(-93.6,150,150)"/><use href="#vd-minTick" transform="rotate(-86.4,150,150)"/><use href="#vd-minTick" transform="rotate(-79.2,150,150)"/><use href="#vd-minTick" transform="rotate(-64.8,150,150)"/><use href="#vd-minTick" transform="rotate(-57.6,150,150)"/><use href="#vd-minTick" transform="rotate(-50.4,150,150)"/><use href="#vd-minTick" transform="rotate(-43.2,150,150)"/><use href="#vd-minTick" transform="rotate(-28.8,150,150)"/><use href="#vd-minTick" transform="rotate(-21.6,150,150)"/><use href="#vd-minTick" transform="rotate(-14.4,150,150)"/><use href="#vd-minTick" transform="rotate(-7.2,150,150)"/></g><g font-family="'DIN Bold', 'Futura Bold', Futura, 'Univers 55', 'Helvetica Neue', Arial, sans-serif" font-weight="bold" font-size="14px" fill="#ffffff" dominant-baseline="central" class="s23z7c1"><text x="150" y="76" text-anchor="middle" class="s23z7c2">0</text><g transform="rotate(36,150,150)"><text x="147" y="76" text-anchor="end" class="s23z7c3"><tspan>9</tspan></text><text x="153" y="76" text-anchor="start" class="s23z7c2">0</text></g><g transform="rotate(72,150,150)"><text x="147" y="76" text-anchor="end" class="s23z7c3"><tspan>8</tspan></text><text x="153" y="76" text-anchor="start" class="s23z7c2">0</text></g><g transform="rotate(108,150,150)"><text x="147" y="76" text-anchor="end" class="s23z7c3"><tspan>7</tspan></text><text x="153" y="76" text-anchor="start" class="s23z7c2">0</text></g><g transform="rotate(144,150,150)"><text x="147" y="76" text-anchor="end" class="s23z7c3"><tspan>6</tspan></text><text x="153" y="76" text-anchor="start" class="s23z7c2">0</text></g><g transform="rotate(180,150,150)"><text x="147" y="76" text-anchor="end" class="s23z7c2">5</text><text x="153" y="76" text-anchor="start" class="s23z7c2">0</text></g><g transform="rotate(-144,150,150)"><text x="147" y="76" text-anchor="end" class="s23z7c3"><tspan>4</tspan></text><text x="153" y="76" text-anchor="start" class="s23z7c2">0</text></g><g transform="rotate(-108,150,150)"><text x="147" y="76" text-anchor="end" class="s23z7c3"><tspan>3</tspan></text><text x="153" y="76" text-anchor="start" class="s23z7c2">0</text></g><g transform="rotate(-72,150,150)"><text x="147" y="76" text-anchor="end" class="s23z7c3"><tspan>2</tspan></text><text x="153" y="76" text-anchor="start" class="s23z7c2">0</text></g><g transform="rotate(-36,150,150)"><text x="147" y="76" text-anchor="end" class="s23z7c3"><tspan>1</tspan></text><text x="153" y="76" text-anchor="start" class="s23z7c2">0</text></g></g></g><g class="s23z7c1" transform="matrix(1.732653,0,0,1.732653,-110.08112,-110.44744)"><circle cx="151" cy="152" r="42" fill="#000000" fill-opacity="0.2" class="s23z7c4"/><circle cx="150" cy="150" r="42" fill="#111111" class="s23z7c4"/><circle cx="150" cy="150" r="42" fill="none" stroke="#000000" stroke-opacity="0.3" stroke-width="1" class="s23z7c4"/><polygon points="150,188 117.1,169 117.1,131 150,112 182.9,131 182.9,169 " fill="#d8d8d8" stroke="#3a3a3a" stroke-width="0.5" class="s23z7c5"/><polygon points="150,150 150,112 117.1,131 " fill="#ffffff" fill-opacity="0.06" class="s23z7c4"/><polygon points="182.9,131 150,150 150,112 " fill="#ffffff" fill-opacity="0.04" class="s23z7c4"/><polygon points="150,188 150,150 117.1,169 " fill="#000000" fill-opacity="0.06" class="s23z7c4"/><polygon points="150,188 150,150 182.9,169 " fill="#000000" fill-opacity="0.1" class="s23z7c4"/><line x1="117.1" y1="131" x2="150" y2="112" stroke="#ffffff" stroke-opacity="0.12" stroke-width="0.6" class="s23z7c4"/><line x1="150" y1="112" x2="182.9" y2="131" stroke="#ffffff" stroke-opacity="0.1" stroke-width="0.6" class="s23z7c4"/><line x1="182.9" y1="169" x2="150" y2="188" stroke="#000000" stroke-opacity="0.15" stroke-width="0.6"/><line x1="150" y1="188" x2="117.1" y2="169" stroke="#000000" stroke-opacity="0.15" stroke-width="0.6"/><line x1="182.9" y1="131" x2="182.9" y2="169" stroke="#000000" stroke-opacity="0.05" stroke-width="0.5" class="s23z7c1"/><line x1="117.1" y1="131" x2="117.1" y2="169" stroke="#ffffff" stroke-opacity="0.05" stroke-width="0.5" class="s23z7c1"/><g transform="matrix(1.7548267,0,0,1.7548267,-113.22401,-113.22401)"><circle cx="150" cy="150" r="18" fill="url(#vd-cap)" stroke="#2a2a2a" stroke-width="0.5" class="s23z7c6"/><circle cx="150" cy="150" r="16" fill="none" stroke="#ffffff" stroke-opacity="0.06" stroke-width="0.5" class="s23z7c4"/><circle cx="150" cy="150" r="16.47" fill="#1a1a1a" stroke="#282828" stroke-width="0.548852" class="s23z7c1"/></g><circle cx="150" cy="116" r="2" fill="#4a4a4a" stroke="#333333" stroke-width="0.3" class="s23z7c4"/></g></g><g class="s23z7c1"><g mask="url(#vd-ringMask)"><circle cx="150" cy="150" r="140" fill="url(#vd-metal)"/><circle cx="150" cy="150" r="140" fill="url(#vd-bevel)"/><circle cx="150" cy="150" r="140" fill="none" stroke="#999999" stroke-width="0.7" class="s23z7c4"/><circle cx="150" cy="150" r="138.5" fill="none" stroke="#ffffff" stroke-opacity="0.3" stroke-width="0.6"/><path d="M66.9 102 28.8 80 A140 140 0 0 1 220 28.8 L198 66.9 A96 96 0 0 0 66.9 102 Z" fill="#ffffff" fill-opacity="0.3"/><path d="M102 66.9 80 28.8 a140 140 0 0 1 94.3-16.7 l-7.6 43.3 A96 96 0 0 0 102 66.9 Z" fill="#ffffff" fill-opacity="0.2"/><path d="M198 66.9 220 28.8 A140 140 0 0 1 290 150 H246 A96 96 0 0 0 198 66.9 Z" fill="#ffffff" fill-opacity="0.08"/><path d="m198 233.1 22 38.1 A140 140 0 0 1 28.8 220 L66.9 198 A96 96 0 0 0 198 233.1 Z" fill="#000000" fill-opacity="0.15"/><path d="m150 246 v44 A140 140 0 0 1 60 257.2 L88.3 223.5 A96 96 0 0 0 150 246 Z" fill="#000000" fill-opacity="0.1"/><path d="m66.9 198-38.1 22 a140 140 0 0 1 0-140 l38.1 22 a96 96 0 0 0 0 96 z" fill="#000000" fill-opacity="0.05"/><g stroke-linecap="butt" opacity="0.1"><line x1="150" y1="12" x2="150" y2="96" stroke="#ffffff" stroke-width="0.4"/><line x1="150" y1="12" x2="150" y2="96" transform="rotate(30,150,150)" stroke="#000000" stroke-width="0.3"/><line x1="150" y1="12" x2="150" y2="96" transform="rotate(60,150,150)" stroke="#ffffff" stroke-width="0.4"/><line x1="150" y1="12" x2="150" y2="96" transform="rotate(90,150,150)" stroke="#000000" stroke-width="0.3"/><line x1="150" y1="12" x2="150" y2="96" transform="rotate(120,150,150)" stroke="#ffffff" stroke-width="0.4"/><line x1="150" y1="12" x2="150" y2="96" transform="rotate(150,150,150)" stroke="#000000" stroke-width="0.3"/><line x1="150" y1="12" x2="150" y2="96" transform="rotate(180,150,150)" stroke="#ffffff" stroke-width="0.4"/><line x1="150" y1="12" x2="150" y2="96" transform="rotate(-150,150,150)" stroke="#000000" stroke-width="0.3"/><line x1="150" y1="12" x2="150" y2="96" transform="rotate(-120,150,150)" stroke="#ffffff" stroke-width="0.4"/><line x1="150" y1="12" x2="150" y2="96" transform="rotate(-90,150,150)" stroke="#000000" stroke-width="0.3"/><line x1="150" y1="12" x2="150" y2="96" transform="rotate(-60,150,150)" stroke="#ffffff" stroke-width="0.4"/><line x1="150" y1="12" x2="150" y2="96" transform="rotate(-30,150,150)" stroke="#000000" stroke-width="0.3"/></g><circle cx="150" cy="150" r="140" fill="url(#vd-coneInner)" class="s23z7c1"/><circle cx="150" cy="150" r="97" fill="none" stroke="#000000" stroke-opacity="0.22" stroke-width="2.5" class="s23z7c1"/><circle cx="150" cy="150" r="96.5" fill="none" stroke="#000000" stroke-opacity="0.1" stroke-width="1" class="s23z7c1"/></g><rect x="128.68" y="16.15" width="42.63" height="23.82" rx="4.57" ry="2.98" fill="#080808" stroke="#888888" stroke-width="0.983356"/><rect x="137" y="15" width="26" height="4" rx="1" fill="#000000" fill-opacity="0.5" class="s23z7c4"/><rect x="137" y="33" width="26" height="4" rx="1" fill="#000000" fill-opacity="0.3" class="s23z7c4"/><text id="vd-counter" x="150" y="29.65" text-anchor="middle" dominant-baseline="central" font-family="'DIN Bold', 'Futura Bold', Futura, 'Helvetica Neue', Arial, sans-serif" font-size="19px" font-weight="bold" fill="#ffffff" class="s23z7c2">0</text><polygon points="153,44 150,55 147,44 " fill="#333333" stroke="#222222" stroke-width="0.4" class="s23z7c4"/><line x1="150" y1="41.62" x2="150" y2="50.36" stroke="#222222" stroke-width="2.21735" stroke-linecap="round"/></g><g class="s23z7c1" transform="matrix(3.3705678,0,0,3.3705678,-570.50084,-99.37324)"><g transform="rotate(40,150,150)"><path d="m145 4 h10 l1 8 c0 2-2 3-6 3-4 0-6-1-6-3 z" fill="#a8a8a8" stroke="#888888" stroke-width="0.6" class="s23z7c7"/><path d="m146 5 h8 l1 6 c0 2-2 3-5 3-3 0-5-1-5-3 z" fill="none" stroke="#ffffff" stroke-opacity="0.2" stroke-width="0.4" class="s23z7c8"/><line x1="147" y1="6" x2="153" y2="6" stroke="#999999" stroke-width="0.4"/><line x1="147" y1="7.5" x2="153" y2="7.5" stroke="#bbbbbb" stroke-width="0.3"/><line x1="147" y1="9" x2="153" y2="9" stroke="#999999" stroke-width="0.4"/><line x1="147.5" y1="10.5" x2="152.5" y2="10.5" stroke="#bbbbbb" stroke-width="0.3"/></g></g></svg>