<?xml version="1.0" encoding="UTF-8"?>
<!--
  Spectrol Multi-turn Vernier Dial (Model 15 style)
  Based on EMS Synthi 100 frequency/range controls
  
  viewBox: 300x300, center at (150,150)
  
  Layer structure (bottom to top):
    #GyratoryBlackDisk    - Rotating inner disc with 0-100 scale (rotate via CSS/JS)
    #FixedSilverOuterDisk - Chrome outer ring (static, masked donut shape)
    #ClickableBrakeLever  - Friction brake lever (interactive)
    #CentralHexKnob       - Hexagonal grip knob (rotates with inner disc)
    #counterDigit         - Turn counter text element (update programmatically 0-9)
  
  Usage:
    - Rotate #GyratoryBlackDisk and #CentralHexKnob together for dial control
    - Update #counterDigit text for the turn counter (0-9)
    - #FixedSilverOuterDisk and indicator remain static
  
  Typography: DIN Bold / Futura Bold / Helvetica Neue (sans-serif fallback)
-->
<svg viewBox="0 0 300 300" width="300" height="300" xmlns="http://www.w3.org/2000/svg">
  <defs>
    <!-- ==================== GRADIENTS ==================== -->
    
    <!-- Base silver tone for outer disc ring -->
    <radialGradient id="vd-metal" cx="50%" cy="50%" r="50%">
      <stop offset="0%" stop-color="#c8c8c8"/>
      <stop offset="100%" stop-color="#b0b0b0"/>
    </radialGradient>
    
    <!-- Bevel highlight for disc outer edge (3D rim effect) -->
    <radialGradient id="vd-bevel" cx="50%" cy="50%" r="50%">
      <stop offset="88%" stop-color="transparent"/>
      <stop offset="94%" stop-color="rgba(255,255,255,0.35)"/>
      <stop offset="100%" stop-color="rgba(0,0,0,0.15)"/>
    </radialGradient>
    
    <!-- Conical specular: strong bright band upper-left, shadow lower-right -->
    <linearGradient id="vd-coneSpec1" x1="0%" y1="0%" x2="100%" y2="100%">
      <stop offset="0%" stop-color="rgba(255,255,255,0.55)"/>
      <stop offset="12%" stop-color="rgba(255,255,255,0.35)"/>
      <stop offset="30%" stop-color="rgba(255,255,255,0.12)"/>
      <stop offset="48%" stop-color="transparent"/>
      <stop offset="65%" stop-color="rgba(0,0,0,0.05)"/>
      <stop offset="82%" stop-color="rgba(0,0,0,0.12)"/>
      <stop offset="100%" stop-color="rgba(0,0,0,0.20)"/>
    </linearGradient>
    
    <!-- Conical specular 2: secondary perpendicular catch-light + shadow -->
    <linearGradient id="vd-coneSpec2" x1="100%" y1="0%" x2="0%" y2="100%">
      <stop offset="0%" stop-color="rgba(255,255,255,0.18)"/>
      <stop offset="20%" stop-color="rgba(255,255,255,0.06)"/>
      <stop offset="45%" stop-color="transparent"/>
      <stop offset="70%" stop-color="rgba(0,0,0,0.04)"/>
      <stop offset="100%" stop-color="rgba(0,0,0,0.10)"/>
    </linearGradient>
    
    <!-- Inner shadow gradient (cone recedes toward center) -->
    <radialGradient id="vd-coneInner" cx="50%" cy="50%" r="50%">
      <stop offset="55%" stop-color="rgba(0,0,0,0.10)"/>
      <stop offset="68%" stop-color="transparent"/>
      <stop offset="100%" stop-color="transparent"/>
    </radialGradient>
    
    <!-- Depth gradient for hexagonal knob (light upper-left) -->
    <radialGradient id="vd-knob" cx="40%" cy="35%" r="65%">
      <stop offset="0%" stop-color="#404040"/>
      <stop offset="50%" stop-color="#2a2a2a"/>
      <stop offset="100%" stop-color="#151515"/>
    </radialGradient>
    
    <!-- Center cap gradient -->
    <radialGradient id="vd-cap" cx="42%" cy="38%" r="60%">
      <stop offset="0%" stop-color="#333"/>
      <stop offset="100%" stop-color="#111"/>
    </radialGradient>
    
    <!-- ==================== MASKS ==================== -->
    
    <!-- Ring mask: cuts a circular hole in the outer disc to reveal inner disc -->
    <mask id="vd-ringMask">
      <rect width="300" height="300" fill="white"/>
      <circle cx="150" cy="150" r="96" fill="black"/>
    </mask>
    
    <!-- ==================== TICK DEFINITIONS ==================== -->
    
    <!-- Major tick mark (at every 10 units: 0, 10, 20...90) -->
    <line id="vd-majTick" x1="150" y1="56" x2="150" y2="67"
          stroke="#ffffff" stroke-width="1.8" stroke-linecap="round"/>
    
    <!-- Minor tick mark (at every 2 units between majors) -->
    <line id="vd-minTick" x1="150" y1="56" x2="150" y2="62"
          stroke="#cccccc" stroke-width="0.8" stroke-linecap="round"/>
  </defs>


  <!-- ============================================================ -->
  <!-- LAYER 1: ROTATING BLACK DISC WITH SCALE                      -->
  <!-- Rotate this group via CSS transform-origin: 150px 150px      -->
  <!-- One full rotation (360°) = 0 to 100 on the scale             -->
  <!-- Each unit = 3.6°, each major division (10) = 36°             -->
  <!-- ============================================================ -->
  <g id="GyratoryBlackDisk">
    <!-- Black disc surface -->
    <circle cx="150" cy="150" r="96" fill="#1a1a1a"/>
    <circle cx="150" cy="150" r="96" fill="none" stroke="#2a2a2a" stroke-width="0.5"/>
    <!-- Subtle inner edge highlight -->
    <circle cx="150" cy="150" r="95" fill="none" stroke="rgba(255,255,255,0.04)" stroke-width="0.8"/>
    
    <!-- ====== MAJOR TICK MARKS (9 marks, every 36° — 0 uses minor tick) ====== -->
    <!-- Value 0 at 0° gets a minor tick only (number centered) -->
    <use href="#vd-minTick"/>
    <!-- Value 10 at 36° -->
    <use href="#vd-majTick" transform="rotate(36,150,150)"/>
    <!-- Value 20 at 72° -->
    <use href="#vd-majTick" transform="rotate(72,150,150)"/>
    <!-- Value 30 at 108° -->
    <use href="#vd-majTick" transform="rotate(108,150,150)"/>
    <!-- Value 40 at 144° -->
    <use href="#vd-majTick" transform="rotate(144,150,150)"/>
    <!-- Value 50 at 180° -->
    <use href="#vd-majTick" transform="rotate(180,150,150)"/>
    <!-- Value 60 at 216° -->
    <use href="#vd-majTick" transform="rotate(216,150,150)"/>
    <!-- Value 70 at 252° -->
    <use href="#vd-majTick" transform="rotate(252,150,150)"/>
    <!-- Value 80 at 288° -->
    <use href="#vd-majTick" transform="rotate(288,150,150)"/>
    <!-- Value 90 at 324° -->
    <use href="#vd-majTick" transform="rotate(324,150,150)"/>
    
    <!-- ====== MINOR TICK MARKS (40 marks, every 7.2° between majors) ====== -->
    <!-- Section 0→10 (7.2°, 14.4°, 21.6°, 28.8°) -->
    <use href="#vd-minTick" transform="rotate(7.2,150,150)"/>
    <use href="#vd-minTick" transform="rotate(14.4,150,150)"/>
    <use href="#vd-minTick" transform="rotate(21.6,150,150)"/>
    <use href="#vd-minTick" transform="rotate(28.8,150,150)"/>
    <!-- Section 10→20 -->
    <use href="#vd-minTick" transform="rotate(43.2,150,150)"/>
    <use href="#vd-minTick" transform="rotate(50.4,150,150)"/>
    <use href="#vd-minTick" transform="rotate(57.6,150,150)"/>
    <use href="#vd-minTick" transform="rotate(64.8,150,150)"/>
    <!-- Section 20→30 -->
    <use href="#vd-minTick" transform="rotate(79.2,150,150)"/>
    <use href="#vd-minTick" transform="rotate(86.4,150,150)"/>
    <use href="#vd-minTick" transform="rotate(93.6,150,150)"/>
    <use href="#vd-minTick" transform="rotate(100.8,150,150)"/>
    <!-- Section 30→40 -->
    <use href="#vd-minTick" transform="rotate(115.2,150,150)"/>
    <use href="#vd-minTick" transform="rotate(122.4,150,150)"/>
    <use href="#vd-minTick" transform="rotate(129.6,150,150)"/>
    <use href="#vd-minTick" transform="rotate(136.8,150,150)"/>
    <!-- Section 40→50 -->
    <use href="#vd-minTick" transform="rotate(151.2,150,150)"/>
    <use href="#vd-minTick" transform="rotate(158.4,150,150)"/>
    <use href="#vd-minTick" transform="rotate(165.6,150,150)"/>
    <use href="#vd-minTick" transform="rotate(172.8,150,150)"/>
    <!-- Section 50→60 -->
    <use href="#vd-minTick" transform="rotate(187.2,150,150)"/>
    <use href="#vd-minTick" transform="rotate(194.4,150,150)"/>
    <use href="#vd-minTick" transform="rotate(201.6,150,150)"/>
    <use href="#vd-minTick" transform="rotate(208.8,150,150)"/>
    <!-- Section 60→70 -->
    <use href="#vd-minTick" transform="rotate(223.2,150,150)"/>
    <use href="#vd-minTick" transform="rotate(230.4,150,150)"/>
    <use href="#vd-minTick" transform="rotate(237.6,150,150)"/>
    <use href="#vd-minTick" transform="rotate(244.8,150,150)"/>
    <!-- Section 70→80 -->
    <use href="#vd-minTick" transform="rotate(259.2,150,150)"/>
    <use href="#vd-minTick" transform="rotate(266.4,150,150)"/>
    <use href="#vd-minTick" transform="rotate(273.6,150,150)"/>
    <use href="#vd-minTick" transform="rotate(280.8,150,150)"/>
    <!-- Section 80→90 -->
    <use href="#vd-minTick" transform="rotate(295.2,150,150)"/>
    <use href="#vd-minTick" transform="rotate(302.4,150,150)"/>
    <use href="#vd-minTick" transform="rotate(309.6,150,150)"/>
    <use href="#vd-minTick" transform="rotate(316.8,150,150)"/>
    <!-- Section 90→0 -->
    <use href="#vd-minTick" transform="rotate(331.2,150,150)"/>
    <use href="#vd-minTick" transform="rotate(338.4,150,150)"/>
    <use href="#vd-minTick" transform="rotate(345.6,150,150)"/>
    <use href="#vd-minTick" transform="rotate(352.8,150,150)"/>
    
    <!-- ====== SCALE NUMBERS (radially oriented, split around tick) ====== -->
    <!-- Tens digit LEFT of tick, units digit RIGHT of tick.
         Exception: "0" is centered (no major tick). -->
    <g font-family="'DIN Bold','Futura Bold','Futura','Univers 55','Helvetica Neue',Arial,sans-serif"
       font-weight="bold" font-size="14" fill="#ffffff"
       dominant-baseline="central">
      <!-- 0 at 0° — centered, no major tick -->
      <text x="150" y="76" text-anchor="middle">0</text>
      <!-- 10 at 36° -->
      <g transform="rotate(36,150,150)">
        <text x="147" y="76" text-anchor="end">1</text>
        <text x="153" y="76" text-anchor="start">0</text>
      </g>
      <!-- 20 at 72° -->
      <g transform="rotate(72,150,150)">
        <text x="147" y="76" text-anchor="end">2</text>
        <text x="153" y="76" text-anchor="start">0</text>
      </g>
      <!-- 30 at 108° -->
      <g transform="rotate(108,150,150)">
        <text x="147" y="76" text-anchor="end">3</text>
        <text x="153" y="76" text-anchor="start">0</text>
      </g>
      <!-- 40 at 144° -->
      <g transform="rotate(144,150,150)">
        <text x="147" y="76" text-anchor="end">4</text>
        <text x="153" y="76" text-anchor="start">0</text>
      </g>
      <!-- 50 at 180° -->
      <g transform="rotate(180,150,150)">
        <text x="147" y="76" text-anchor="end">5</text>
        <text x="153" y="76" text-anchor="start">0</text>
      </g>
      <!-- 60 at 216° -->
      <g transform="rotate(216,150,150)">
        <text x="147" y="76" text-anchor="end">6</text>
        <text x="153" y="76" text-anchor="start">0</text>
      </g>
      <!-- 70 at 252° -->
      <g transform="rotate(252,150,150)">
        <text x="147" y="76" text-anchor="end">7</text>
        <text x="153" y="76" text-anchor="start">0</text>
      </g>
      <!-- 80 at 288° -->
      <g transform="rotate(288,150,150)">
        <text x="147" y="76" text-anchor="end">8</text>
        <text x="153" y="76" text-anchor="start">0</text>
      </g>
      <!-- 90 at 324° -->
      <g transform="rotate(324,150,150)">
        <text x="147" y="76" text-anchor="end">9</text>
        <text x="153" y="76" text-anchor="start">0</text>
      </g>
    </g>
  </g>


  <!-- ============================================================ -->
  <!-- LAYER 2: FIXED SILVER OUTER DISC (ring shape, static)        -->
  <!-- Masked to create a donut: outer r=140, inner hole r=96       -->
  <!-- This ring sits ON TOP of the inner disc edge                 -->
  <!-- ============================================================ -->
  <g id="FixedSilverOuterDisk">
    <!-- Outer disc ring (masked to donut shape) -->
    <g mask="url(#vd-ringMask)">
      <!-- Drop shadow (offset 2px right and down) -->
      <circle cx="152" cy="153" r="141" fill="rgba(0,0,0,0.12)"/>
      
      <!-- Main disc body (brushed aluminum) -->
      <circle cx="150" cy="150" r="140" fill="url(#vd-metal)"/>
      
      <!-- 3D bevel effect on rim -->
      <circle cx="150" cy="150" r="140" fill="url(#vd-bevel)"/>
      
      <!-- Outer edge details -->
      <circle cx="150" cy="150" r="140" fill="none" stroke="#999" stroke-width="0.7"/>
      <circle cx="150" cy="150" r="138.5" fill="none" stroke="rgba(255,255,255,0.3)" stroke-width="0.6"/>
      
      <!-- ==========================================================
           Realistic conical reflections using pie-slice WEDGES      
           (annular sectors from r=96 to r=140).                     
                                                                     
           A machined aluminum cone lit from upper-left shows:       
           - Bright specular band at ~300°-30° (upper-left)          
           - Medium transition at ~30°-90°                           
           - Neutral at ~90°-150°                                    
           - Shadow band at ~150°-240° (lower-right)                 
           - Recovery transition at ~240°-300°                       
                                                                     
           Coordinates: for angle θ (CW from 12 o'clock):           
             x = 150 + R·sin(θ), y = 150 - R·cos(θ)                
           ========================================================== -->
      
      <!-- ZONE 1: BRIGHT SPECULAR — 300° to 30° (90° span, upper-left) -->
      <!-- Outer: 300°=(28.8,80) → 30°=(220,28.8) | Inner: 300°=(66.9,102) → 30°=(198,66.9) -->
      <path d="M 66.9,102 L 28.8,80 A 140,140 0 0,1 220,28.8 L 198,66.9 A 96,96 0 0,0 66.9,102 Z"
            fill="rgba(255,255,255,0.30)"/>
      
      <!-- ZONE 1a: HOT SPECULAR CORE — 330° to 10° (40° narrower, brighter) -->
      <!-- Outer: 330°=(80,28.8) → 10°=(174.3,12.1) | Inner: 330°=(102,66.9) → 10°=(166.7,55.4) -->
      <path d="M 102,66.9 L 80,28.8 A 140,140 0 0,1 174.3,12.1 L 166.7,55.4 A 96,96 0 0,0 102,66.9 Z"
            fill="rgba(255,255,255,0.20)"/>
      
      <!-- ZONE 2: MEDIUM-BRIGHT TRANSITION — 30° to 90° (60° span, upper-right) -->
      <!-- Outer: 30°=(220,28.8) → 90°=(290,150) | Inner: 30°=(198,66.9) → 90°=(246,150) -->
      <path d="M 198,66.9 L 220,28.8 A 140,140 0 0,1 290,150 L 246,150 A 96,96 0 0,0 198,66.9 Z"
            fill="rgba(255,255,255,0.08)"/>
      
      <!-- ZONE 3: NEUTRAL — 90° to 150° (no overlay, base metal shows through) -->
      
      <!-- ZONE 4: SHADOW BAND — 150° to 240° (90° span, lower area) -->
      <!-- Outer: 150°=(220,271.2) → 240°=(28.8,220) | Inner: 150°=(198,233.1) → 240°=(66.9,198) -->
      <path d="M 198,233.1 L 220,271.2 A 140,140 0 0,1 28.8,220 L 66.9,198 A 96,96 0 0,0 198,233.1 Z"
            fill="rgba(0,0,0,0.15)"/>
      
      <!-- ZONE 4a: DEEP SHADOW CORE — 180° to 220° (40° narrower, darker) -->
      <!-- Outer: 180°=(150,290) → 220°=(60.0,257.2) | Inner: 180°=(150,246) → 220°=(88.3,223.5) -->
      <path d="M 150,246 L 150,290 A 140,140 0 0,1 60.0,257.2 L 88.3,223.5 A 96,96 0 0,0 150,246 Z"
            fill="rgba(0,0,0,0.10)"/>
      
      <!-- ZONE 5: SHADOW-TO-LIGHT TRANSITION — 240° to 300° (60° span, left) -->
      <!-- Outer: 240°=(28.8,220) → 300°=(28.8,80) | Inner: 240°=(66.9,198) → 300°=(66.9,102) -->
      <path d="M 66.9,198 L 28.8,220 A 140,140 0 0,1 28.8,80 L 66.9,102 A 96,96 0 0,0 66.9,198 Z"
            fill="rgba(0,0,0,0.05)"/>
      
      <!-- Subtle radial brushed texture (very fine, barely visible, just hints machining) -->
      <g stroke-linecap="butt" opacity="0.10">
        <line x1="150" y1="12" x2="150" y2="96" transform="rotate(0,150,150)" stroke="#fff" stroke-width="0.4"/>
        <line x1="150" y1="12" x2="150" y2="96" transform="rotate(30,150,150)" stroke="#000" stroke-width="0.3"/>
        <line x1="150" y1="12" x2="150" y2="96" transform="rotate(60,150,150)" stroke="#fff" stroke-width="0.4"/>
        <line x1="150" y1="12" x2="150" y2="96" transform="rotate(90,150,150)" stroke="#000" stroke-width="0.3"/>
        <line x1="150" y1="12" x2="150" y2="96" transform="rotate(120,150,150)" stroke="#fff" stroke-width="0.4"/>
        <line x1="150" y1="12" x2="150" y2="96" transform="rotate(150,150,150)" stroke="#000" stroke-width="0.3"/>
        <line x1="150" y1="12" x2="150" y2="96" transform="rotate(180,150,150)" stroke="#fff" stroke-width="0.4"/>
        <line x1="150" y1="12" x2="150" y2="96" transform="rotate(210,150,150)" stroke="#000" stroke-width="0.3"/>
        <line x1="150" y1="12" x2="150" y2="96" transform="rotate(240,150,150)" stroke="#fff" stroke-width="0.4"/>
        <line x1="150" y1="12" x2="150" y2="96" transform="rotate(270,150,150)" stroke="#000" stroke-width="0.3"/>
        <line x1="150" y1="12" x2="150" y2="96" transform="rotate(300,150,150)" stroke="#fff" stroke-width="0.4"/>
        <line x1="150" y1="12" x2="150" y2="96" transform="rotate(330,150,150)" stroke="#000" stroke-width="0.3"/>
      </g>
      
      <!-- Inner darkening (cone recedes into center hole) -->
      <circle cx="150" cy="150" r="140" fill="url(#vd-coneInner)"/>
      
      <!-- Inner edge of outer disc (rim shadow where it overhangs inner disc) -->
      <circle cx="150" cy="150" r="97" fill="none" stroke="rgba(0,0,0,0.22)" stroke-width="2.5"/>
      <circle cx="150" cy="150" r="96.5" fill="none" stroke="rgba(0,0,0,0.10)" stroke-width="1"/>
    </g>
    
    <!-- Counter window (on the ring surface between r=96 and r=140) -->
    <!-- Window frame -->
    <rect x="136" y="14" width="28" height="24" rx="3" ry="3"
          fill="#080808" stroke="#888" stroke-width="0.8"/>
    <!-- Drum shadow (top and bottom of window opening) -->
    <rect x="137" y="15" width="26" height="4" rx="1" fill="rgba(0,0,0,0.5)"/>
    <rect x="137" y="33" width="26" height="4" rx="1" fill="rgba(0,0,0,0.3)"/>
    <!-- Counter digit (update programmatically: 0-9 for turn count) -->
    <text id="counterDigit" x="150" y="28"
          text-anchor="middle" dominant-baseline="central"
          font-family="'DIN Bold','Futura Bold','Futura','Helvetica Neue',Arial,sans-serif"
          font-size="19" font-weight="bold" fill="#ffffff">0</text>
    
    <!-- Indicator mark / reading pointer (below counter window) -->
    <!-- Small triangle pointing inward toward the scale -->
    <polygon points="150,55 147,44 153,44" fill="#333" stroke="#222" stroke-width="0.4"/>
    <!-- Fine indicator line extending to disc edge -->
    <line x1="150" y1="52" x2="150" y2="56" stroke="#222" stroke-width="1.5" stroke-linecap="round"/>
  </g>


  <!-- ============================================================ -->
  <!-- LAYER 3: FRICTION BRAKE LEVER (clickable, upper-right)       -->
  <!-- Rotated 40° from 12 o'clock on the outer disc surface        -->
  <!-- ============================================================ -->
  <g id="ClickableBrakeLever">
    <g transform="rotate(40,150,150)">
      <!-- Brake tab: flat metal paddle protruding from outer rim -->
      <!-- Tab body (extends outward from disc edge) -->
      <path d="M145,4 L155,4 L156,12 C156,14 154,15 150,15 C146,15 144,14 144,12 Z"
            fill="#a8a8a8" stroke="#888" stroke-width="0.6"/>
      <!-- Tab surface highlight (brushed metal look) -->
      <path d="M146,5 L154,5 L155,11 C155,13 153,14 150,14 C147,14 145,13 145,11 Z"
            fill="none" stroke="rgba(255,255,255,0.2)" stroke-width="0.4"/>
      <!-- Knurled grip lines on tab -->
      <line x1="147" y1="6" x2="153" y2="6" stroke="#999" stroke-width="0.4"/>
      <line x1="147" y1="7.5" x2="153" y2="7.5" stroke="#bbb" stroke-width="0.3"/>
      <line x1="147" y1="9" x2="153" y2="9" stroke="#999" stroke-width="0.4"/>
      <line x1="147.5" y1="10.5" x2="152.5" y2="10.5" stroke="#bbb" stroke-width="0.3"/>
    </g>
  </g>


  <!-- ============================================================ -->
  <!-- LAYER 4: CENTRAL HEXAGONAL KNOB (topmost)                    -->
  <!-- Rotates together with GyratoryBlackDisk                      -->
  <!-- Hex circumradius = 38, pointy-top orientation                -->
  <!-- ============================================================ -->
  <g id="CentralHexKnob">
    <!-- Cast shadow (depth illusion — knob is recessed) -->
    <circle cx="151" cy="152" r="42" fill="rgba(0,0,0,0.2)"/>
    
    <!-- Recess ring (dark area around hex knob) -->
    <circle cx="150" cy="150" r="42" fill="#111"/>
    <circle cx="150" cy="150" r="42" fill="none" stroke="rgba(0,0,0,0.3)" stroke-width="1"/>
    
    <!-- Hexagonal knob body -->
    <!-- 6 vertices at r=38, pointy-top: 0°, 60°, 120°, 180°, 240°, 300° -->
    <polygon points="150,112 182.9,131 182.9,169 150,188 117.1,169 117.1,131"
             fill="url(#vd-knob)" stroke="#3a3a3a" stroke-width="0.5"/>
    
    <!-- 3D facet shading (upper faces brighter, lower faces darker) -->
    <!-- Upper-left face -->
    <polygon points="150,112 117.1,131 150,150"
             fill="rgba(255,255,255,0.06)"/>
    <!-- Upper-right face -->
    <polygon points="150,112 182.9,131 150,150"
             fill="rgba(255,255,255,0.04)"/>
    <!-- Lower-left face -->
    <polygon points="117.1,169 150,188 150,150"
             fill="rgba(0,0,0,0.06)"/>
    <!-- Lower-right face -->
    <polygon points="182.9,169 150,188 150,150"
             fill="rgba(0,0,0,0.1)"/>
    
    <!-- Hex edge highlights (top edges bright, bottom edges dark) -->
    <line x1="117.1" y1="131" x2="150" y2="112" stroke="rgba(255,255,255,0.12)" stroke-width="0.6"/>
    <line x1="150" y1="112" x2="182.9" y2="131" stroke="rgba(255,255,255,0.1)" stroke-width="0.6"/>
    <line x1="182.9" y1="169" x2="150" y2="188" stroke="rgba(0,0,0,0.15)" stroke-width="0.6"/>
    <line x1="150" y1="188" x2="117.1" y2="169" stroke="rgba(0,0,0,0.15)" stroke-width="0.6"/>
    <!-- Side edges (neutral) -->
    <line x1="182.9" y1="131" x2="182.9" y2="169" stroke="rgba(0,0,0,0.05)" stroke-width="0.5"/>
    <line x1="117.1" y1="131" x2="117.1" y2="169" stroke="rgba(255,255,255,0.05)" stroke-width="0.5"/>
    
    <!-- Central grip cap (raised circle in center of hex) -->
    <circle cx="150" cy="150" r="18" fill="url(#vd-cap)" stroke="#2a2a2a" stroke-width="0.5"/>
    <!-- Cap highlight ring -->
    <circle cx="150" cy="150" r="16" fill="none" stroke="rgba(255,255,255,0.06)" stroke-width="0.5"/>
    <!-- Inner ring detail -->
    <circle cx="150" cy="150" r="12" fill="#1a1a1a" stroke="#282828" stroke-width="0.4"/>
    
    <!-- Rotation reference indicator (small dot near edge of hex, top) -->
    <circle cx="150" cy="116" r="2" fill="#4a4a4a" stroke="#333" stroke-width="0.3"/>
  </g>
</svg>
