<?xml version="1.0" encoding="UTF-8"?>
<!--
  Spectrol Multi-turn Vernier Dial (Model 15 style)
  Based on EMS Synthi 100 frequency/range controls
  
  viewBox: 300x300, center at (150,150)
  
  Layer structure (bottom to top):
    #GyratoryBlackDisk    - Rotating inner disc with 0-100 scale (rotate via CSS/JS)
    #FixedSilverOuterDisk - Chrome outer ring (static, masked donut shape)
    #ClickableBrakeLever  - Friction brake lever (interactive)
    #CentralHexKnob       - Hexagonal grip knob (rotates with inner disc)
    #counterDigit         - Turn counter text element (update programmatically 0-9)
  
  Usage:
    - Rotate #GyratoryBlackDisk and #CentralHexKnob together for dial control
    - Update #counterDigit text for the turn counter (0-9)
    - #FixedSilverOuterDisk and indicator remain static
  
  Typography: DIN Bold / Futura Bold / Helvetica Neue (sans-serif fallback)
-->
<svg viewBox="0 0 300 300" width="300" height="300" xmlns="http://www.w3.org/2000/svg">
  <defs>
    <!-- ==================== GRADIENTS ==================== -->
    
    <!-- Base silver tone for outer disc ring -->
    <radialGradient id="vd-metal" cx="50%" cy="50%" r="50%">
      <stop offset="0%" stop-color="#c8c8c8"/>
      <stop offset="100%" stop-color="#b0b0b0"/>
    </radialGradient>
    
    <!-- Bevel highlight for disc outer edge (3D rim effect) -->
    <radialGradient id="vd-bevel" cx="50%" cy="50%" r="50%">
      <stop offset="88%" stop-color="transparent"/>
      <stop offset="94%" stop-color="rgba(255,255,255,0.35)"/>
      <stop offset="100%" stop-color="rgba(0,0,0,0.15)"/>
    </radialGradient>
    
    <!-- Conical specular: bright band upper-left (light reflected on cone surface) -->
    <linearGradient id="vd-coneSpec1" x1="0%" y1="0%" x2="100%" y2="100%">
      <stop offset="0%" stop-color="rgba(255,255,255,0.50)"/>
      <stop offset="20%" stop-color="rgba(255,255,255,0.30)"/>
      <stop offset="40%" stop-color="rgba(255,255,255,0.05)"/>
      <stop offset="60%" stop-color="transparent"/>
      <stop offset="100%" stop-color="rgba(0,0,0,0.12)"/>
    </linearGradient>
    
    <!-- Conical specular 2: secondary catch-light, perpendicular axis -->
    <linearGradient id="vd-coneSpec2" x1="100%" y1="0%" x2="0%" y2="100%">
      <stop offset="0%" stop-color="rgba(255,255,255,0.15)"/>
      <stop offset="30%" stop-color="rgba(255,255,255,0.06)"/>
      <stop offset="50%" stop-color="transparent"/>
      <stop offset="100%" stop-color="transparent"/>
    </linearGradient>
    
    <!-- Inner shadow gradient (cone recedes toward center) -->
    <radialGradient id="vd-coneInner" cx="50%" cy="50%" r="50%">
      <stop offset="55%" stop-color="rgba(0,0,0,0.10)"/>
      <stop offset="68%" stop-color="transparent"/>
      <stop offset="100%" stop-color="transparent"/>
    </radialGradient>
    
    <!-- Depth gradient for hexagonal knob (light upper-left) -->
    <radialGradient id="vd-knob" cx="40%" cy="35%" r="65%">
      <stop offset="0%" stop-color="#404040"/>
      <stop offset="50%" stop-color="#2a2a2a"/>
      <stop offset="100%" stop-color="#151515"/>
    </radialGradient>
    
    <!-- Center cap gradient -->
    <radialGradient id="vd-cap" cx="42%" cy="38%" r="60%">
      <stop offset="0%" stop-color="#333"/>
      <stop offset="100%" stop-color="#111"/>
    </radialGradient>
    
    <!-- ==================== MASKS ==================== -->
    
    <!-- Ring mask: cuts a circular hole in the outer disc to reveal inner disc -->
    <mask id="vd-ringMask">
      <rect width="300" height="300" fill="white"/>
      <circle cx="150" cy="150" r="96" fill="black"/>
    </mask>
    
    <!-- ==================== TICK DEFINITIONS ==================== -->
    
    <!-- Major tick mark (at every 10 units: 0, 10, 20...90) -->
    <line id="vd-majTick" x1="150" y1="56" x2="150" y2="67"
          stroke="#ffffff" stroke-width="1.8" stroke-linecap="round"/>
    
    <!-- Minor tick mark (at every 2 units between majors) -->
    <line id="vd-minTick" x1="150" y1="56" x2="150" y2="62"
          stroke="#cccccc" stroke-width="0.8" stroke-linecap="round"/>
  </defs>


  <!-- ============================================================ -->
  <!-- LAYER 1: ROTATING BLACK DISC WITH SCALE                      -->
  <!-- Rotate this group via CSS transform-origin: 150px 150px      -->
  <!-- One full rotation (360°) = 0 to 100 on the scale             -->
  <!-- Each unit = 3.6°, each major division (10) = 36°             -->
  <!-- ============================================================ -->
  <g id="GyratoryBlackDisk">
    <!-- Black disc surface -->
    <circle cx="150" cy="150" r="96" fill="#1a1a1a"/>
    <circle cx="150" cy="150" r="96" fill="none" stroke="#2a2a2a" stroke-width="0.5"/>
    <!-- Subtle inner edge highlight -->
    <circle cx="150" cy="150" r="95" fill="none" stroke="rgba(255,255,255,0.04)" stroke-width="0.8"/>
    
    <!-- ====== MAJOR TICK MARKS (9 marks, every 36° — 0 uses minor tick) ====== -->
    <!-- Value 0 at 0° gets a minor tick only (number centered) -->
    <use href="#vd-minTick"/>
    <!-- Value 10 at 36° -->
    <use href="#vd-majTick" transform="rotate(36,150,150)"/>
    <!-- Value 20 at 72° -->
    <use href="#vd-majTick" transform="rotate(72,150,150)"/>
    <!-- Value 30 at 108° -->
    <use href="#vd-majTick" transform="rotate(108,150,150)"/>
    <!-- Value 40 at 144° -->
    <use href="#vd-majTick" transform="rotate(144,150,150)"/>
    <!-- Value 50 at 180° -->
    <use href="#vd-majTick" transform="rotate(180,150,150)"/>
    <!-- Value 60 at 216° -->
    <use href="#vd-majTick" transform="rotate(216,150,150)"/>
    <!-- Value 70 at 252° -->
    <use href="#vd-majTick" transform="rotate(252,150,150)"/>
    <!-- Value 80 at 288° -->
    <use href="#vd-majTick" transform="rotate(288,150,150)"/>
    <!-- Value 90 at 324° -->
    <use href="#vd-majTick" transform="rotate(324,150,150)"/>
    
    <!-- ====== MINOR TICK MARKS (40 marks, every 7.2° between majors) ====== -->
    <!-- Section 0→10 (7.2°, 14.4°, 21.6°, 28.8°) -->
    <use href="#vd-minTick" transform="rotate(7.2,150,150)"/>
    <use href="#vd-minTick" transform="rotate(14.4,150,150)"/>
    <use href="#vd-minTick" transform="rotate(21.6,150,150)"/>
    <use href="#vd-minTick" transform="rotate(28.8,150,150)"/>
    <!-- Section 10→20 -->
    <use href="#vd-minTick" transform="rotate(43.2,150,150)"/>
    <use href="#vd-minTick" transform="rotate(50.4,150,150)"/>
    <use href="#vd-minTick" transform="rotate(57.6,150,150)"/>
    <use href="#vd-minTick" transform="rotate(64.8,150,150)"/>
    <!-- Section 20→30 -->
    <use href="#vd-minTick" transform="rotate(79.2,150,150)"/>
    <use href="#vd-minTick" transform="rotate(86.4,150,150)"/>
    <use href="#vd-minTick" transform="rotate(93.6,150,150)"/>
    <use href="#vd-minTick" transform="rotate(100.8,150,150)"/>
    <!-- Section 30→40 -->
    <use href="#vd-minTick" transform="rotate(115.2,150,150)"/>
    <use href="#vd-minTick" transform="rotate(122.4,150,150)"/>
    <use href="#vd-minTick" transform="rotate(129.6,150,150)"/>
    <use href="#vd-minTick" transform="rotate(136.8,150,150)"/>
    <!-- Section 40→50 -->
    <use href="#vd-minTick" transform="rotate(151.2,150,150)"/>
    <use href="#vd-minTick" transform="rotate(158.4,150,150)"/>
    <use href="#vd-minTick" transform="rotate(165.6,150,150)"/>
    <use href="#vd-minTick" transform="rotate(172.8,150,150)"/>
    <!-- Section 50→60 -->
    <use href="#vd-minTick" transform="rotate(187.2,150,150)"/>
    <use href="#vd-minTick" transform="rotate(194.4,150,150)"/>
    <use href="#vd-minTick" transform="rotate(201.6,150,150)"/>
    <use href="#vd-minTick" transform="rotate(208.8,150,150)"/>
    <!-- Section 60→70 -->
    <use href="#vd-minTick" transform="rotate(223.2,150,150)"/>
    <use href="#vd-minTick" transform="rotate(230.4,150,150)"/>
    <use href="#vd-minTick" transform="rotate(237.6,150,150)"/>
    <use href="#vd-minTick" transform="rotate(244.8,150,150)"/>
    <!-- Section 70→80 -->
    <use href="#vd-minTick" transform="rotate(259.2,150,150)"/>
    <use href="#vd-minTick" transform="rotate(266.4,150,150)"/>
    <use href="#vd-minTick" transform="rotate(273.6,150,150)"/>
    <use href="#vd-minTick" transform="rotate(280.8,150,150)"/>
    <!-- Section 80→90 -->
    <use href="#vd-minTick" transform="rotate(295.2,150,150)"/>
    <use href="#vd-minTick" transform="rotate(302.4,150,150)"/>
    <use href="#vd-minTick" transform="rotate(309.6,150,150)"/>
    <use href="#vd-minTick" transform="rotate(316.8,150,150)"/>
    <!-- Section 90→0 -->
    <use href="#vd-minTick" transform="rotate(331.2,150,150)"/>
    <use href="#vd-minTick" transform="rotate(338.4,150,150)"/>
    <use href="#vd-minTick" transform="rotate(345.6,150,150)"/>
    <use href="#vd-minTick" transform="rotate(352.8,150,150)"/>
    
    <!-- ====== SCALE NUMBERS (radially oriented, split around tick) ====== -->
    <!-- Each number rotated so baseline points outward from center.
         Tens digit LEFT of tick, units digit RIGHT of tick.
         Exception: "0" is centered (no major tick). -->
    <g font-family="'DIN Bold','Futura Bold','Futura','Univers 55','Helvetica Neue',Arial,sans-serif"
       font-weight="bold" font-size="14" fill="#ffffff"
       dominant-baseline="central">
      <!-- 0 at 0° — centered, no major tick -->
      <text x="150" y="76" text-anchor="middle">0</text>
      <!-- 10 at 36° — "1" left of tick, "0" right -->
      <g transform="rotate(36,150,150)">
        <text x="147" y="76" text-anchor="end">1</text>
        <text x="153" y="76" text-anchor="start">0</text>
      </g>
      <!-- 20 at 72° -->
      <g transform="rotate(72,150,150)">
        <text x="147" y="76" text-anchor="end">2</text>
        <text x="153" y="76" text-anchor="start">0</text>
      </g>
      <!-- 30 at 108° -->
      <g transform="rotate(108,150,150)">
        <text x="147" y="76" text-anchor="end">3</text>
        <text x="153" y="76" text-anchor="start">0</text>
      </g>
      <!-- 40 at 144° -->
      <g transform="rotate(144,150,150)">
        <text x="147" y="76" text-anchor="end">4</text>
        <text x="153" y="76" text-anchor="start">0</text>
      </g>
      <!-- 50 at 180° -->
      <g transform="rotate(180,150,150)">
        <text x="147" y="76" text-anchor="end">5</text>
        <text x="153" y="76" text-anchor="start">0</text>
      </g>
      <!-- 60 at 216° -->
      <g transform="rotate(216,150,150)">
        <text x="147" y="76" text-anchor="end">6</text>
        <text x="153" y="76" text-anchor="start">0</text>
      </g>
      <!-- 70 at 252° -->
      <g transform="rotate(252,150,150)">
        <text x="147" y="76" text-anchor="end">7</text>
        <text x="153" y="76" text-anchor="start">0</text>
      </g>
      <!-- 80 at 288° -->
      <g transform="rotate(288,150,150)">
        <text x="147" y="76" text-anchor="end">8</text>
        <text x="153" y="76" text-anchor="start">0</text>
      </g>
      <!-- 90 at 324° -->
      <g transform="rotate(324,150,150)">
        <text x="147" y="76" text-anchor="end">9</text>
        <text x="153" y="76" text-anchor="start">0</text>
      </g>
    </g>
  </g>


  <!-- ============================================================ -->
  <!-- LAYER 2: FIXED SILVER OUTER DISC (ring shape, static)        -->
  <!-- Masked to create a donut: outer r=140, inner hole r=96       -->
  <!-- This ring sits ON TOP of the inner disc edge                 -->
  <!-- ============================================================ -->
  <g id="FixedSilverOuterDisk">
    <!-- Outer disc ring (masked to donut shape) -->
    <g mask="url(#vd-ringMask)">
      <!-- Drop shadow (offset 2px right and down) -->
      <circle cx="152" cy="153" r="141" fill="rgba(0,0,0,0.12)"/>
      
      <!-- Main disc body (brushed aluminum) -->
      <circle cx="150" cy="150" r="140" fill="url(#vd-metal)"/>
      
      <!-- 3D bevel effect on rim -->
      <circle cx="150" cy="150" r="140" fill="url(#vd-bevel)"/>
      
      <!-- Outer edge details -->
      <circle cx="150" cy="150" r="140" fill="none" stroke="#999" stroke-width="0.7"/>
      <circle cx="150" cy="150" r="138.5" fill="none" stroke="rgba(255,255,255,0.3)" stroke-width="0.6"/>
      
      <!-- Radial brushed metal (cone surface: lines radiate from center) -->
      <!-- 90 lines every 4°, visible striations for machined aluminium -->
      <g stroke-linecap="butt" opacity="0.8">
        <line x1="150" y1="12" x2="150" y2="96" transform="rotate(0,150,150)" stroke="#d8d8d8" stroke-width="1.2"/>
        <line x1="150" y1="12" x2="150" y2="96" transform="rotate(4,150,150)" stroke="#b8b8b8" stroke-width="0.8"/>
        <line x1="150" y1="12" x2="150" y2="96" transform="rotate(8,150,150)" stroke="#d0d0d0" stroke-width="1.0"/>
        <line x1="150" y1="12" x2="150" y2="96" transform="rotate(12,150,150)" stroke="#bcbcbc" stroke-width="0.7"/>
        <line x1="150" y1="12" x2="150" y2="96" transform="rotate(16,150,150)" stroke="#d5d5d5" stroke-width="1.1"/>
        <line x1="150" y1="12" x2="150" y2="96" transform="rotate(20,150,150)" stroke="#bababa" stroke-width="0.8"/>
        <line x1="150" y1="12" x2="150" y2="96" transform="rotate(24,150,150)" stroke="#d2d2d2" stroke-width="1.0"/>
        <line x1="150" y1="12" x2="150" y2="96" transform="rotate(28,150,150)" stroke="#b6b6b6" stroke-width="0.7"/>
        <line x1="150" y1="12" x2="150" y2="96" transform="rotate(32,150,150)" stroke="#d8d8d8" stroke-width="1.2"/>
        <line x1="150" y1="12" x2="150" y2="96" transform="rotate(36,150,150)" stroke="#bababa" stroke-width="0.8"/>
        <line x1="150" y1="12" x2="150" y2="96" transform="rotate(40,150,150)" stroke="#d0d0d0" stroke-width="1.0"/>
        <line x1="150" y1="12" x2="150" y2="96" transform="rotate(44,150,150)" stroke="#b8b8b8" stroke-width="0.7"/>
        <line x1="150" y1="12" x2="150" y2="96" transform="rotate(48,150,150)" stroke="#d5d5d5" stroke-width="1.1"/>
        <line x1="150" y1="12" x2="150" y2="96" transform="rotate(52,150,150)" stroke="#bcbcbc" stroke-width="0.8"/>
        <line x1="150" y1="12" x2="150" y2="96" transform="rotate(56,150,150)" stroke="#d2d2d2" stroke-width="1.0"/>
        <line x1="150" y1="12" x2="150" y2="96" transform="rotate(60,150,150)" stroke="#b6b6b6" stroke-width="0.7"/>
        <line x1="150" y1="12" x2="150" y2="96" transform="rotate(64,150,150)" stroke="#d8d8d8" stroke-width="1.2"/>
        <line x1="150" y1="12" x2="150" y2="96" transform="rotate(68,150,150)" stroke="#bababa" stroke-width="0.8"/>
        <line x1="150" y1="12" x2="150" y2="96" transform="rotate(72,150,150)" stroke="#d0d0d0" stroke-width="1.0"/>
        <line x1="150" y1="12" x2="150" y2="96" transform="rotate(76,150,150)" stroke="#b8b8b8" stroke-width="0.7"/>
        <line x1="150" y1="12" x2="150" y2="96" transform="rotate(80,150,150)" stroke="#d5d5d5" stroke-width="1.1"/>
        <line x1="150" y1="12" x2="150" y2="96" transform="rotate(84,150,150)" stroke="#bcbcbc" stroke-width="0.8"/>
        <line x1="150" y1="12" x2="150" y2="96" transform="rotate(88,150,150)" stroke="#d2d2d2" stroke-width="1.0"/>
        <line x1="150" y1="12" x2="150" y2="96" transform="rotate(92,150,150)" stroke="#b6b6b6" stroke-width="0.7"/>
        <line x1="150" y1="12" x2="150" y2="96" transform="rotate(96,150,150)" stroke="#d8d8d8" stroke-width="1.2"/>
        <line x1="150" y1="12" x2="150" y2="96" transform="rotate(100,150,150)" stroke="#bababa" stroke-width="0.8"/>
        <line x1="150" y1="12" x2="150" y2="96" transform="rotate(104,150,150)" stroke="#d0d0d0" stroke-width="1.0"/>
        <line x1="150" y1="12" x2="150" y2="96" transform="rotate(108,150,150)" stroke="#b8b8b8" stroke-width="0.7"/>
        <line x1="150" y1="12" x2="150" y2="96" transform="rotate(112,150,150)" stroke="#d5d5d5" stroke-width="1.1"/>
        <line x1="150" y1="12" x2="150" y2="96" transform="rotate(116,150,150)" stroke="#bcbcbc" stroke-width="0.8"/>
        <line x1="150" y1="12" x2="150" y2="96" transform="rotate(120,150,150)" stroke="#d2d2d2" stroke-width="1.0"/>
        <line x1="150" y1="12" x2="150" y2="96" transform="rotate(124,150,150)" stroke="#b6b6b6" stroke-width="0.7"/>
        <line x1="150" y1="12" x2="150" y2="96" transform="rotate(128,150,150)" stroke="#d8d8d8" stroke-width="1.2"/>
        <line x1="150" y1="12" x2="150" y2="96" transform="rotate(132,150,150)" stroke="#bababa" stroke-width="0.8"/>
        <line x1="150" y1="12" x2="150" y2="96" transform="rotate(136,150,150)" stroke="#d0d0d0" stroke-width="1.0"/>
        <line x1="150" y1="12" x2="150" y2="96" transform="rotate(140,150,150)" stroke="#b8b8b8" stroke-width="0.7"/>
        <line x1="150" y1="12" x2="150" y2="96" transform="rotate(144,150,150)" stroke="#d5d5d5" stroke-width="1.1"/>
        <line x1="150" y1="12" x2="150" y2="96" transform="rotate(148,150,150)" stroke="#bcbcbc" stroke-width="0.8"/>
        <line x1="150" y1="12" x2="150" y2="96" transform="rotate(152,150,150)" stroke="#d2d2d2" stroke-width="1.0"/>
        <line x1="150" y1="12" x2="150" y2="96" transform="rotate(156,150,150)" stroke="#b6b6b6" stroke-width="0.7"/>
        <line x1="150" y1="12" x2="150" y2="96" transform="rotate(160,150,150)" stroke="#d8d8d8" stroke-width="1.2"/>
        <line x1="150" y1="12" x2="150" y2="96" transform="rotate(164,150,150)" stroke="#bababa" stroke-width="0.8"/>
        <line x1="150" y1="12" x2="150" y2="96" transform="rotate(168,150,150)" stroke="#d0d0d0" stroke-width="1.0"/>
        <line x1="150" y1="12" x2="150" y2="96" transform="rotate(172,150,150)" stroke="#b8b8b8" stroke-width="0.7"/>
        <line x1="150" y1="12" x2="150" y2="96" transform="rotate(176,150,150)" stroke="#d5d5d5" stroke-width="1.1"/>
        <line x1="150" y1="12" x2="150" y2="96" transform="rotate(180,150,150)" stroke="#bcbcbc" stroke-width="0.8"/>
        <line x1="150" y1="12" x2="150" y2="96" transform="rotate(184,150,150)" stroke="#d2d2d2" stroke-width="1.0"/>
        <line x1="150" y1="12" x2="150" y2="96" transform="rotate(188,150,150)" stroke="#b6b6b6" stroke-width="0.7"/>
        <line x1="150" y1="12" x2="150" y2="96" transform="rotate(192,150,150)" stroke="#d8d8d8" stroke-width="1.2"/>
        <line x1="150" y1="12" x2="150" y2="96" transform="rotate(196,150,150)" stroke="#bababa" stroke-width="0.8"/>
        <line x1="150" y1="12" x2="150" y2="96" transform="rotate(200,150,150)" stroke="#d0d0d0" stroke-width="1.0"/>
        <line x1="150" y1="12" x2="150" y2="96" transform="rotate(204,150,150)" stroke="#b8b8b8" stroke-width="0.7"/>
        <line x1="150" y1="12" x2="150" y2="96" transform="rotate(208,150,150)" stroke="#d5d5d5" stroke-width="1.1"/>
        <line x1="150" y1="12" x2="150" y2="96" transform="rotate(212,150,150)" stroke="#bcbcbc" stroke-width="0.8"/>
        <line x1="150" y1="12" x2="150" y2="96" transform="rotate(216,150,150)" stroke="#d2d2d2" stroke-width="1.0"/>
        <line x1="150" y1="12" x2="150" y2="96" transform="rotate(220,150,150)" stroke="#b6b6b6" stroke-width="0.7"/>
        <line x1="150" y1="12" x2="150" y2="96" transform="rotate(224,150,150)" stroke="#d8d8d8" stroke-width="1.2"/>
        <line x1="150" y1="12" x2="150" y2="96" transform="rotate(228,150,150)" stroke="#bababa" stroke-width="0.8"/>
        <line x1="150" y1="12" x2="150" y2="96" transform="rotate(232,150,150)" stroke="#d0d0d0" stroke-width="1.0"/>
        <line x1="150" y1="12" x2="150" y2="96" transform="rotate(236,150,150)" stroke="#b8b8b8" stroke-width="0.7"/>
        <line x1="150" y1="12" x2="150" y2="96" transform="rotate(240,150,150)" stroke="#d5d5d5" stroke-width="1.1"/>
        <line x1="150" y1="12" x2="150" y2="96" transform="rotate(244,150,150)" stroke="#bcbcbc" stroke-width="0.8"/>
        <line x1="150" y1="12" x2="150" y2="96" transform="rotate(248,150,150)" stroke="#d2d2d2" stroke-width="1.0"/>
        <line x1="150" y1="12" x2="150" y2="96" transform="rotate(252,150,150)" stroke="#b6b6b6" stroke-width="0.7"/>
        <line x1="150" y1="12" x2="150" y2="96" transform="rotate(256,150,150)" stroke="#d8d8d8" stroke-width="1.2"/>
        <line x1="150" y1="12" x2="150" y2="96" transform="rotate(260,150,150)" stroke="#bababa" stroke-width="0.8"/>
        <line x1="150" y1="12" x2="150" y2="96" transform="rotate(264,150,150)" stroke="#d0d0d0" stroke-width="1.0"/>
        <line x1="150" y1="12" x2="150" y2="96" transform="rotate(268,150,150)" stroke="#b8b8b8" stroke-width="0.7"/>
        <line x1="150" y1="12" x2="150" y2="96" transform="rotate(272,150,150)" stroke="#d5d5d5" stroke-width="1.1"/>
        <line x1="150" y1="12" x2="150" y2="96" transform="rotate(276,150,150)" stroke="#bcbcbc" stroke-width="0.8"/>
        <line x1="150" y1="12" x2="150" y2="96" transform="rotate(280,150,150)" stroke="#d2d2d2" stroke-width="1.0"/>
        <line x1="150" y1="12" x2="150" y2="96" transform="rotate(284,150,150)" stroke="#b6b6b6" stroke-width="0.7"/>
        <line x1="150" y1="12" x2="150" y2="96" transform="rotate(288,150,150)" stroke="#d8d8d8" stroke-width="1.2"/>
        <line x1="150" y1="12" x2="150" y2="96" transform="rotate(292,150,150)" stroke="#bababa" stroke-width="0.8"/>
        <line x1="150" y1="12" x2="150" y2="96" transform="rotate(296,150,150)" stroke="#d0d0d0" stroke-width="1.0"/>
        <line x1="150" y1="12" x2="150" y2="96" transform="rotate(300,150,150)" stroke="#b8b8b8" stroke-width="0.7"/>
        <line x1="150" y1="12" x2="150" y2="96" transform="rotate(304,150,150)" stroke="#d5d5d5" stroke-width="1.1"/>
        <line x1="150" y1="12" x2="150" y2="96" transform="rotate(308,150,150)" stroke="#bcbcbc" stroke-width="0.8"/>
        <line x1="150" y1="12" x2="150" y2="96" transform="rotate(312,150,150)" stroke="#d2d2d2" stroke-width="1.0"/>
        <line x1="150" y1="12" x2="150" y2="96" transform="rotate(316,150,150)" stroke="#b6b6b6" stroke-width="0.7"/>
        <line x1="150" y1="12" x2="150" y2="96" transform="rotate(320,150,150)" stroke="#d8d8d8" stroke-width="1.2"/>
        <line x1="150" y1="12" x2="150" y2="96" transform="rotate(324,150,150)" stroke="#bababa" stroke-width="0.8"/>
        <line x1="150" y1="12" x2="150" y2="96" transform="rotate(328,150,150)" stroke="#d0d0d0" stroke-width="1.0"/>
        <line x1="150" y1="12" x2="150" y2="96" transform="rotate(332,150,150)" stroke="#b8b8b8" stroke-width="0.7"/>
        <line x1="150" y1="12" x2="150" y2="96" transform="rotate(336,150,150)" stroke="#d5d5d5" stroke-width="1.1"/>
        <line x1="150" y1="12" x2="150" y2="96" transform="rotate(340,150,150)" stroke="#bcbcbc" stroke-width="0.8"/>
        <line x1="150" y1="12" x2="150" y2="96" transform="rotate(344,150,150)" stroke="#d2d2d2" stroke-width="1.0"/>
        <line x1="150" y1="12" x2="150" y2="96" transform="rotate(348,150,150)" stroke="#b6b6b6" stroke-width="0.7"/>
        <line x1="150" y1="12" x2="150" y2="96" transform="rotate(352,150,150)" stroke="#d8d8d8" stroke-width="1.1"/>
        <line x1="150" y1="12" x2="150" y2="96" transform="rotate(356,150,150)" stroke="#bcbcbc" stroke-width="0.8"/>
      </g>
      
      <!-- Conical specular highlight: main catch-light upper-left -->
      <circle cx="150" cy="150" r="140" fill="url(#vd-coneSpec1)"/>
      <!-- Secondary specular catch-light -->
      <circle cx="150" cy="150" r="140" fill="url(#vd-coneSpec2)"/>
      <!-- Inner darkening (cone recedes toward center hole) -->
      <circle cx="150" cy="150" r="140" fill="url(#vd-coneInner)"/>
      
      <!-- Inner edge of outer disc (rim shadow where it overhangs inner disc) -->
      <circle cx="150" cy="150" r="97" fill="none" stroke="rgba(0,0,0,0.22)" stroke-width="2.5"/>
      <circle cx="150" cy="150" r="96.5" fill="none" stroke="rgba(0,0,0,0.10)" stroke-width="1"/>
    </g>
    
    <!-- Counter window (on the ring surface between r=96 and r=140) -->
    <!-- Window frame -->
    <rect x="136" y="14" width="28" height="24" rx="3" ry="3"
          fill="#080808" stroke="#888" stroke-width="0.8"/>
    <!-- Drum shadow (top and bottom of window opening) -->
    <rect x="137" y="15" width="26" height="4" rx="1" fill="rgba(0,0,0,0.5)"/>
    <rect x="137" y="33" width="26" height="4" rx="1" fill="rgba(0,0,0,0.3)"/>
    <!-- Counter digit (update programmatically: 0-9 for turn count) -->
    <text id="counterDigit" x="150" y="28"
          text-anchor="middle" dominant-baseline="central"
          font-family="'DIN Bold','Futura Bold','Futura','Helvetica Neue',Arial,sans-serif"
          font-size="19" font-weight="bold" fill="#ffffff">0</text>
    
    <!-- Indicator mark / reading pointer (below counter window) -->
    <!-- Small triangle pointing inward toward the scale -->
    <polygon points="150,55 147,44 153,44" fill="#333" stroke="#222" stroke-width="0.4"/>
    <!-- Fine indicator line extending to disc edge -->
    <line x1="150" y1="52" x2="150" y2="56" stroke="#222" stroke-width="1.5" stroke-linecap="round"/>
  </g>


  <!-- ============================================================ -->
  <!-- LAYER 3: FRICTION BRAKE LEVER (clickable, upper-right)       -->
  <!-- Rotated 40° from 12 o'clock on the outer disc surface        -->
  <!-- ============================================================ -->
  <g id="ClickableBrakeLever">
    <g transform="rotate(40,150,150)">
      <!-- Lever arm -->
      <rect x="147" y="4" width="6" height="15" rx="2" ry="2"
            fill="#b5b5b5" stroke="#888" stroke-width="0.5"/>
      <!-- Knurled top of lever -->
      <rect x="147.5" y="4.5" width="5" height="5" rx="1" fill="#c8c8c8"/>
      <!-- Pivot screw -->
      <circle cx="150" cy="13" r="3.5" fill="#c0c0c0" stroke="#888" stroke-width="0.5"/>
      <circle cx="150" cy="13" r="1.8" fill="#a8a8a8"/>
      <!-- Screw slot -->
      <line x1="148.5" y1="13" x2="151.5" y2="13" stroke="#888" stroke-width="0.6"/>
    </g>
  </g>


  <!-- ============================================================ -->
  <!-- LAYER 4: CENTRAL HEXAGONAL KNOB (topmost)                    -->
  <!-- Rotates together with GyratoryBlackDisk                      -->
  <!-- Hex circumradius = 38, pointy-top orientation                -->
  <!-- ============================================================ -->
  <g id="CentralHexKnob">
    <!-- Cast shadow (depth illusion — knob is recessed) -->
    <circle cx="151" cy="152" r="42" fill="rgba(0,0,0,0.2)"/>
    
    <!-- Recess ring (dark area around hex knob) -->
    <circle cx="150" cy="150" r="42" fill="#111"/>
    <circle cx="150" cy="150" r="42" fill="none" stroke="rgba(0,0,0,0.3)" stroke-width="1"/>
    
    <!-- Hexagonal knob body -->
    <!-- 6 vertices at r=38, pointy-top: 0°, 60°, 120°, 180°, 240°, 300° -->
    <polygon points="150,112 182.9,131 182.9,169 150,188 117.1,169 117.1,131"
             fill="url(#vd-knob)" stroke="#3a3a3a" stroke-width="0.5"/>
    
    <!-- 3D facet shading (upper faces brighter, lower faces darker) -->
    <!-- Upper-left face -->
    <polygon points="150,112 117.1,131 150,150"
             fill="rgba(255,255,255,0.06)"/>
    <!-- Upper-right face -->
    <polygon points="150,112 182.9,131 150,150"
             fill="rgba(255,255,255,0.04)"/>
    <!-- Lower-left face -->
    <polygon points="117.1,169 150,188 150,150"
             fill="rgba(0,0,0,0.06)"/>
    <!-- Lower-right face -->
    <polygon points="182.9,169 150,188 150,150"
             fill="rgba(0,0,0,0.1)"/>
    
    <!-- Hex edge highlights (top edges bright, bottom edges dark) -->
    <line x1="117.1" y1="131" x2="150" y2="112" stroke="rgba(255,255,255,0.12)" stroke-width="0.6"/>
    <line x1="150" y1="112" x2="182.9" y2="131" stroke="rgba(255,255,255,0.1)" stroke-width="0.6"/>
    <line x1="182.9" y1="169" x2="150" y2="188" stroke="rgba(0,0,0,0.15)" stroke-width="0.6"/>
    <line x1="150" y1="188" x2="117.1" y2="169" stroke="rgba(0,0,0,0.15)" stroke-width="0.6"/>
    <!-- Side edges (neutral) -->
    <line x1="182.9" y1="131" x2="182.9" y2="169" stroke="rgba(0,0,0,0.05)" stroke-width="0.5"/>
    <line x1="117.1" y1="131" x2="117.1" y2="169" stroke="rgba(255,255,255,0.05)" stroke-width="0.5"/>
    
    <!-- Central grip cap (raised circle in center of hex) -->
    <circle cx="150" cy="150" r="18" fill="url(#vd-cap)" stroke="#2a2a2a" stroke-width="0.5"/>
    <!-- Cap highlight ring -->
    <circle cx="150" cy="150" r="16" fill="none" stroke="rgba(255,255,255,0.06)" stroke-width="0.5"/>
    <!-- Inner ring detail -->
    <circle cx="150" cy="150" r="12" fill="#1a1a1a" stroke="#282828" stroke-width="0.4"/>
    
    <!-- Rotation reference indicator (small dot near edge of hex, top) -->
    <circle cx="150" cy="116" r="2" fill="#4a4a4a" stroke="#333" stroke-width="0.3"/>
  </g>
</svg>
