<svg viewBox="0 0 200 200" width="200" height="200" xmlns="http://www.w3.org/2000/svg"><style>.s1ynwc1{stop-color:white;stop-opacity:0.4}.s1ynwc2{stop-color:black;stop-opacity:0.2}.s1ynwc3{display:inline;fill:#a1a1a1;fill-opacity:0.53}.s1ynwc4{fill:#fff}.s1ynwc5{stroke:#fff}.s1ynwc6{fill:#fff;font-family:'Univers 55';font-size:21.86px;font-stretch:normal;font-style:normal;font-variant:normal;font-weight:500;stroke-width:0.99}.s1ynwc7{stroke-width:0.99}</style><defs><radialGradient cx="100" cy="100" r="50" fx="80.000001" fy="80.000001" gradientUnits="userSpaceOnUse"><stop offset="0%" class="s1ynwc1"/><stop offset="100%" class="s1ynwc2"/></radialGradient><line id="tickSmall" x1="100" y1="18" x2="100" y2="22" stroke="#ffffff" stroke-width="0.5" stroke-linecap="round"/><line id="tickBig" x1="100" y1="18" x2="100" y2="22" stroke="#ffffff" stroke-width="1.5" stroke-linecap="round"/><ellipse id="MuescaRedonda" cx="100" cy="38" rx="9" ry="12" fill="#222222"/></defs><g><circle cx="100" cy="100" r="100" fill="#ffffff" fill-opacity="0.15" stroke="none" class="s1ynwc3"/><g transform="matrix(0.86206897,0,0,0.86206897,13.793103,13.793103)"><circle cx="100" cy="100" r="64.21" fill="#222222" stroke="#000000" stroke-width="0.987852"/><use href="#MuescaRedonda"/><use href="#MuescaRedonda" transform="rotate(30,100,100)"/><use href="#MuescaRedonda" transform="rotate(60,100,100)"/><use href="#MuescaRedonda" transform="rotate(90,100,100)"/><use href="#MuescaRedonda" transform="rotate(120,100,100)"/><use href="#MuescaRedonda" transform="rotate(150,100,100)"/><use href="#MuescaRedonda" transform="rotate(180,100,100)"/><use href="#MuescaRedonda" transform="rotate(-150,100,100)"/><use href="#MuescaRedonda" transform="rotate(-120,100,100)"/><use href="#MuescaRedonda" transform="rotate(-90,100,100)"/><use href="#MuescaRedonda" transform="rotate(-60,100,100)"/><use href="#MuescaRedonda" transform="rotate(-30,100,100)"/><circle cx="100" cy="100" r="58" fill="none" stroke="#222222" stroke-width="4"/></g><g transform="matrix(0,-1.179616,1.179616,0,-17.9616,217.9616)"><g stroke="#ffffff" class="s1ynwc4"><use href="#tickBig" class="s1ynwc5"/><use href="#tickSmall" transform="rotate(6,100,100)" class="s1ynwc5"/><use href="#tickSmall" transform="rotate(12,100,100)" class="s1ynwc5"/><use href="#tickSmall" transform="rotate(18,100,100)" class="s1ynwc5"/><use href="#tickSmall" transform="rotate(24,100,100)" class="s1ynwc5"/><use href="#tickBig" transform="rotate(30.000001,100,100)" class="s1ynwc5"/><use href="#tickSmall" transform="rotate(36,100,100)" class="s1ynwc5"/><use href="#tickSmall" transform="rotate(42,100,100)" class="s1ynwc5"/><use href="#tickSmall" transform="rotate(48,100,100)" class="s1ynwc5"/><use href="#tickSmall" transform="rotate(54,100,100)" class="s1ynwc5"/><use href="#tickBig" transform="rotate(60.000001,100,100)" class="s1ynwc5"/><use href="#tickSmall" transform="rotate(66,100,100)" class="s1ynwc5"/><use href="#tickSmall" transform="rotate(72,100,100)" class="s1ynwc5"/><use href="#tickSmall" transform="rotate(78,100,100)" class="s1ynwc5"/><use href="#tickSmall" transform="rotate(84,100,100)" class="s1ynwc5"/><use href="#tickBig" transform="rotate(90,100,100)" class="s1ynwc5"/><use href="#tickSmall" transform="rotate(96,100,100)" class="s1ynwc5"/><use href="#tickSmall" transform="rotate(102,100,100)" class="s1ynwc5"/><use href="#tickSmall" transform="rotate(108,100,100)" class="s1ynwc5"/><use href="#tickSmall" transform="rotate(114,100,100)" class="s1ynwc5"/><use href="#tickBig" transform="rotate(120,100,100)" class="s1ynwc5"/><use href="#tickSmall" transform="rotate(126,100,100)" class="s1ynwc5"/><use href="#tickSmall" transform="rotate(132,100,100)" class="s1ynwc5"/><use href="#tickSmall" transform="rotate(138,100,100)" class="s1ynwc5"/><use href="#tickSmall" transform="rotate(144,100,100)" class="s1ynwc5"/><use href="#tickBig" transform="rotate(150,100,100)" class="s1ynwc5"/><use href="#tickSmall" transform="rotate(156,100,100)" class="s1ynwc5"/><use href="#tickSmall" transform="rotate(162,100,100)" class="s1ynwc5"/><use href="#tickSmall" transform="rotate(168,100,100)" class="s1ynwc5"/><use href="#tickSmall" transform="rotate(174,100,100)" class="s1ynwc5"/><use href="#tickBig" transform="rotate(180,100,100)" class="s1ynwc5"/><use href="#tickSmall" transform="rotate(-174,100,100)" class="s1ynwc5"/><use href="#tickSmall" transform="rotate(-168,100,100)" class="s1ynwc5"/><use href="#tickSmall" transform="rotate(-162,100,100)" class="s1ynwc5"/><use href="#tickSmall" transform="rotate(-156,100,100)" class="s1ynwc5"/><use href="#tickBig" transform="rotate(-150,100,100)" class="s1ynwc5"/><use href="#tickSmall" transform="rotate(-144,100,100)" class="s1ynwc5"/><use href="#tickSmall" transform="rotate(-138,100,100)" class="s1ynwc5"/><use href="#tickSmall" transform="rotate(-132,100,100)" class="s1ynwc5"/><use href="#tickSmall" transform="rotate(-126,100,100)" class="s1ynwc5"/><use href="#tickBig" transform="rotate(-120,100,100)" class="s1ynwc5"/><use href="#tickSmall" transform="rotate(-114,100,100)" class="s1ynwc5"/><use href="#tickSmall" transform="rotate(-108,100,100)" class="s1ynwc5"/><use href="#tickSmall" transform="rotate(-102,100,100)" class="s1ynwc5"/><use href="#tickSmall" transform="rotate(-96,100,100)" class="s1ynwc5"/><use href="#tickBig" transform="rotate(-90,100,100)" class="s1ynwc5"/><use href="#tickSmall" transform="rotate(-84,100,100)" class="s1ynwc5"/><use href="#tickSmall" transform="rotate(-78,100,100)" class="s1ynwc5"/><use href="#tickSmall" transform="rotate(-72,100,100)" class="s1ynwc5"/><use href="#tickSmall" transform="rotate(-66,100,100)" class="s1ynwc5"/><use href="#tickBig" transform="rotate(-60.000001,100,100)" class="s1ynwc5"/></g><g font-family="Arial, sans-serif" font-size="11px" font-weight="bold" fill="#ffffff" text-anchor="middle" transform="matrix(0.87017873,0,0,0.87017873,12.982132,12.97389)"><text class="s1ynwc6" x="100" y="30.81"><tspan x="100" y="30.81" class="s1ynwc7">10</tspan></text><text transform="rotate(30)" class="s1ynwc6" x="136.6" y="-32.59">9</text><text transform="rotate(60)" class="s1ynwc6" x="136.6" y="-105.79">8</text><text transform="rotate(90)" class="s1ynwc6" x="100" y="-169.19">7</text><text transform="rotate(120)" class="s1ynwc6" x="36.6" y="-205.79">6</text><text transform="rotate(150)" class="s1ynwc6" x="-36.6" y="-205.79">5</text><text transform="scale(-1)" class="s1ynwc6" x="-100" y="-169.19">4</text><text transform="rotate(-150)" class="s1ynwc6" x="-136.6" y="-105.79">3</text><text transform="rotate(-120)" class="s1ynwc6" x="-136.6" y="-32.58">2</text><text transform="rotate(-90)" class="s1ynwc6" x="-100" y="30.81">1</text><text transform="rotate(-60)" class="s1ynwc6" x="-36.6" y="67.41">0</text></g></g></g></svg>