<?xml version="1.0" encoding="UTF-8"?>
<!--
  Synthi 100 - Dual Keyboard (top-down view)
  Two 5-octave keyboards (C2-C7), 61 keys each.
  Generated by: scripts/tools/gen-keyboard-svg.mjs

  Structure (top to bottom):
    - Black leather padded strip (arm rest)
    - Upper keyboard with walnut cheek blocks on each side
    - Walnut step/ledge (visible drop-off)
    - Lower keyboard with walnut cheek blocks on each side
    - Walnut front panel with SYNTHI label
  Thick walnut side rails run the full height on both sides.

  Key naming convention:
    White keys:  {keyboard}-{Note}{Octave}     e.g. upper-C4, lower-A5
    Black keys:  {keyboard}-{Note}s{Octave}    e.g. upper-Cs4  (C#4)

  Dimensions in mm. viewBox units = mm.
  Total: 968 x 421 mm
-->
<svg xmlns="http://www.w3.org/2000/svg"
     viewBox="0 0 968 421"
     width="968mm" height="421mm">

  <title>Synthi 100 - Dual Keyboard</title>
  <desc>Two 5-octave keyboards (C2-C7) for the EMS Synthi 100, top-down view with detailed housing.</desc>

  <defs>
    <style>
      .white-key { cursor: pointer; }
      .white-key:hover { fill: #E8E3DA; }
      .black-key { cursor: pointer; }
      .black-key:hover { fill: #2A2A2A; }
    </style>
    <!-- Subtle leather texture -->
    <pattern id="leather-texture" width="6" height="6" patternUnits="userSpaceOnUse">
      <rect width="6" height="6" fill="#1A1A1A"/>
      <circle cx="3" cy="3" r="0.6" fill="#2D2D2D" opacity="0.3"/>
    </pattern>
    <!-- Wood grain pattern for side rails (vertical grain) -->
    <pattern id="wood-pattern" width="4" height="40" patternUnits="userSpaceOnUse"
             patternTransform="rotate(90)">
      <rect width="4" height="40" fill="#5A3720"/>
      <line x1="0" y1="8" x2="4" y2="8.5" stroke="#4A2E1A" stroke-width="0.6" opacity="0.15"/>
      <line x1="0" y1="22" x2="4" y2="21.5" stroke="#4A2E1A" stroke-width="0.4" opacity="0.1"/>
      <line x1="0" y1="34" x2="4" y2="34.8" stroke="#4A2E1A" stroke-width="0.5" opacity="0.12"/>
    </pattern>
  </defs>

  <!-- Background / metal frame (visible in gaps) -->
  <rect id="metal-frame" x="0" y="0" width="968" height="421"
        fill="#2A2A2A" rx="3"/>

  <!-- Left side rail (thick walnut upright) -->
  <g id="rail-left">
    <rect x="0" y="0" width="40" height="421"
          fill="url(#wood-pattern)" stroke="#3E2313" stroke-width="1"/>
    <!-- Inner bevel highlight -->
    <rect x="37" y="0" width="3" height="421"
          fill="#7D5233" opacity="0.25"/>
  </g>

  <!-- Right side rail -->
  <g id="rail-right">
    <rect x="928" y="0" width="40" height="421"
          fill="url(#wood-pattern)" stroke="#3E2313" stroke-width="1"/>
    <!-- Inner bevel highlight -->
    <rect x="928" y="0" width="3" height="421"
          fill="#7D5233" opacity="0.25"/>
  </g>

  <!-- Black leather strip (top arm rest) -->
  <g id="leather-strip">
    <rect x="40" y="0" width="888" height="50"
          fill="url(#leather-texture)"/>
    <!-- Padded edge at bottom -->
    <rect x="40" y="48" width="888" height="2"
          fill="#000" opacity="0.4"/>
    <!-- Stitching line -->
    <line x1="50" y1="25"
          x2="918" y2="25"
          stroke="#2D2D2D" stroke-width="0.4"
          stroke-dasharray="3,3" opacity="0.25"/>
  </g>

  <!-- Cheek blocks and step -->
  <g id="cheeks-and-step">

    <!-- Left cheek - upper keyboard -->
    <rect x="40" y="50" width="18" height="156"
          fill="#6B4226" stroke="#3E2313" stroke-width="0.5"/>
      <line x1="40" y1="57" x2="58" y2="57" stroke="#4A2E1A" stroke-width="0.4" opacity="0.12"/>
      <line x1="40" y1="65" x2="58" y2="64.5" stroke="#4A2E1A" stroke-width="0.4" opacity="0.12"/>
      <line x1="40" y1="75" x2="58" y2="75.5" stroke="#4A2E1A" stroke-width="0.4" opacity="0.12"/>
      <line x1="40" y1="82" x2="58" y2="81.5" stroke="#4A2E1A" stroke-width="0.4" opacity="0.12"/>
      <line x1="40" y1="91" x2="58" y2="91.5" stroke="#4A2E1A" stroke-width="0.4" opacity="0.12"/>
      <line x1="40" y1="97" x2="58" y2="97" stroke="#4A2E1A" stroke-width="0.4" opacity="0.12"/>
      <line x1="40" y1="105" x2="58" y2="105" stroke="#4A2E1A" stroke-width="0.4" opacity="0.12"/>
      <line x1="40" y1="115" x2="58" y2="114.5" stroke="#4A2E1A" stroke-width="0.4" opacity="0.12"/>
      <line x1="40" y1="122" x2="58" y2="122.5" stroke="#4A2E1A" stroke-width="0.4" opacity="0.12"/>
      <line x1="40" y1="131" x2="58" y2="131.5" stroke="#4A2E1A" stroke-width="0.4" opacity="0.12"/>
      <line x1="40" y1="137" x2="58" y2="136.5" stroke="#4A2E1A" stroke-width="0.4" opacity="0.12"/>
      <line x1="40" y1="145" x2="58" y2="145" stroke="#4A2E1A" stroke-width="0.4" opacity="0.12"/>
      <line x1="40" y1="155" x2="58" y2="155" stroke="#4A2E1A" stroke-width="0.4" opacity="0.12"/>
      <line x1="40" y1="162" x2="58" y2="162.5" stroke="#4A2E1A" stroke-width="0.4" opacity="0.12"/>
      <line x1="40" y1="171" x2="58" y2="170.5" stroke="#4A2E1A" stroke-width="0.4" opacity="0.12"/>
      <line x1="40" y1="177" x2="58" y2="176.5" stroke="#4A2E1A" stroke-width="0.4" opacity="0.12"/>
      <line x1="40" y1="185" x2="58" y2="184.5" stroke="#4A2E1A" stroke-width="0.4" opacity="0.12"/>
      <line x1="40" y1="195" x2="58" y2="195" stroke="#4A2E1A" stroke-width="0.4" opacity="0.12"/>
      <line x1="40" y1="202" x2="58" y2="201.5" stroke="#4A2E1A" stroke-width="0.4" opacity="0.12"/>

    <!-- Right cheek - upper keyboard -->
    <rect x="910" y="50" width="18" height="156"
          fill="#6B4226" stroke="#3E2313" stroke-width="0.5"/>
      <line x1="910" y1="57" x2="928" y2="57.5" stroke="#4A2E1A" stroke-width="0.4" opacity="0.12"/>
      <line x1="910" y1="65" x2="928" y2="65" stroke="#4A2E1A" stroke-width="0.4" opacity="0.12"/>
      <line x1="910" y1="75" x2="928" y2="74.5" stroke="#4A2E1A" stroke-width="0.4" opacity="0.12"/>
      <line x1="910" y1="82" x2="928" y2="82" stroke="#4A2E1A" stroke-width="0.4" opacity="0.12"/>
      <line x1="910" y1="91" x2="928" y2="91.5" stroke="#4A2E1A" stroke-width="0.4" opacity="0.12"/>
      <line x1="910" y1="97" x2="928" y2="97.5" stroke="#4A2E1A" stroke-width="0.4" opacity="0.12"/>
      <line x1="910" y1="105" x2="928" y2="105.5" stroke="#4A2E1A" stroke-width="0.4" opacity="0.12"/>
      <line x1="910" y1="115" x2="928" y2="114.5" stroke="#4A2E1A" stroke-width="0.4" opacity="0.12"/>
      <line x1="910" y1="122" x2="928" y2="121.5" stroke="#4A2E1A" stroke-width="0.4" opacity="0.12"/>
      <line x1="910" y1="131" x2="928" y2="130.5" stroke="#4A2E1A" stroke-width="0.4" opacity="0.12"/>
      <line x1="910" y1="137" x2="928" y2="136.5" stroke="#4A2E1A" stroke-width="0.4" opacity="0.12"/>
      <line x1="910" y1="145" x2="928" y2="145.5" stroke="#4A2E1A" stroke-width="0.4" opacity="0.12"/>
      <line x1="910" y1="155" x2="928" y2="155.5" stroke="#4A2E1A" stroke-width="0.4" opacity="0.12"/>
      <line x1="910" y1="162" x2="928" y2="161.5" stroke="#4A2E1A" stroke-width="0.4" opacity="0.12"/>
      <line x1="910" y1="171" x2="928" y2="171" stroke="#4A2E1A" stroke-width="0.4" opacity="0.12"/>
      <line x1="910" y1="177" x2="928" y2="177" stroke="#4A2E1A" stroke-width="0.4" opacity="0.12"/>
      <line x1="910" y1="185" x2="928" y2="185" stroke="#4A2E1A" stroke-width="0.4" opacity="0.12"/>
      <line x1="910" y1="195" x2="928" y2="195.5" stroke="#4A2E1A" stroke-width="0.4" opacity="0.12"/>
      <line x1="910" y1="202" x2="928" y2="202" stroke="#4A2E1A" stroke-width="0.4" opacity="0.12"/>

    <!-- Step/ledge between keyboards (full width between rails) -->
    <rect id="step-top" x="40" y="206" width="888" height="14"
          fill="#5A3720" stroke="#3E2313" stroke-width="0.5"/>
    <rect id="step-shadow" x="40" y="214"
          width="888" height="6"
          fill="#3E2313" opacity="0.5"/>
      <line x1="40" y1="213" x2="928" y2="213.5" stroke="#4A2E1A" stroke-width="0.4" opacity="0.12"/>

    <!-- Left cheek - lower keyboard -->
    <rect x="40" y="220" width="18" height="156"
          fill="#6B4226" stroke="#3E2313" stroke-width="0.5"/>
      <line x1="40" y1="227" x2="58" y2="226.5" stroke="#4A2E1A" stroke-width="0.4" opacity="0.12"/>
      <line x1="40" y1="235" x2="58" y2="235.5" stroke="#4A2E1A" stroke-width="0.4" opacity="0.12"/>
      <line x1="40" y1="245" x2="58" y2="245" stroke="#4A2E1A" stroke-width="0.4" opacity="0.12"/>
      <line x1="40" y1="252" x2="58" y2="252.5" stroke="#4A2E1A" stroke-width="0.4" opacity="0.12"/>
      <line x1="40" y1="261" x2="58" y2="261" stroke="#4A2E1A" stroke-width="0.4" opacity="0.12"/>
      <line x1="40" y1="267" x2="58" y2="266.5" stroke="#4A2E1A" stroke-width="0.4" opacity="0.12"/>
      <line x1="40" y1="275" x2="58" y2="274.5" stroke="#4A2E1A" stroke-width="0.4" opacity="0.12"/>
      <line x1="40" y1="285" x2="58" y2="285.5" stroke="#4A2E1A" stroke-width="0.4" opacity="0.12"/>
      <line x1="40" y1="292" x2="58" y2="292" stroke="#4A2E1A" stroke-width="0.4" opacity="0.12"/>
      <line x1="40" y1="301" x2="58" y2="301" stroke="#4A2E1A" stroke-width="0.4" opacity="0.12"/>
      <line x1="40" y1="307" x2="58" y2="307.5" stroke="#4A2E1A" stroke-width="0.4" opacity="0.12"/>
      <line x1="40" y1="315" x2="58" y2="315" stroke="#4A2E1A" stroke-width="0.4" opacity="0.12"/>
      <line x1="40" y1="325" x2="58" y2="324.5" stroke="#4A2E1A" stroke-width="0.4" opacity="0.12"/>
      <line x1="40" y1="332" x2="58" y2="332" stroke="#4A2E1A" stroke-width="0.4" opacity="0.12"/>
      <line x1="40" y1="341" x2="58" y2="341.5" stroke="#4A2E1A" stroke-width="0.4" opacity="0.12"/>
      <line x1="40" y1="347" x2="58" y2="347.5" stroke="#4A2E1A" stroke-width="0.4" opacity="0.12"/>
      <line x1="40" y1="355" x2="58" y2="355.5" stroke="#4A2E1A" stroke-width="0.4" opacity="0.12"/>
      <line x1="40" y1="365" x2="58" y2="364.5" stroke="#4A2E1A" stroke-width="0.4" opacity="0.12"/>
      <line x1="40" y1="372" x2="58" y2="371.5" stroke="#4A2E1A" stroke-width="0.4" opacity="0.12"/>

    <!-- Right cheek - lower keyboard -->
    <rect x="910" y="220" width="18" height="156"
          fill="#6B4226" stroke="#3E2313" stroke-width="0.5"/>
      <line x1="910" y1="227" x2="928" y2="227" stroke="#4A2E1A" stroke-width="0.4" opacity="0.12"/>
      <line x1="910" y1="235" x2="928" y2="234.5" stroke="#4A2E1A" stroke-width="0.4" opacity="0.12"/>
      <line x1="910" y1="245" x2="928" y2="245.5" stroke="#4A2E1A" stroke-width="0.4" opacity="0.12"/>
      <line x1="910" y1="252" x2="928" y2="251.5" stroke="#4A2E1A" stroke-width="0.4" opacity="0.12"/>
      <line x1="910" y1="261" x2="928" y2="261.5" stroke="#4A2E1A" stroke-width="0.4" opacity="0.12"/>
      <line x1="910" y1="267" x2="928" y2="267" stroke="#4A2E1A" stroke-width="0.4" opacity="0.12"/>
      <line x1="910" y1="275" x2="928" y2="275" stroke="#4A2E1A" stroke-width="0.4" opacity="0.12"/>
      <line x1="910" y1="285" x2="928" y2="284.5" stroke="#4A2E1A" stroke-width="0.4" opacity="0.12"/>
      <line x1="910" y1="292" x2="928" y2="292.5" stroke="#4A2E1A" stroke-width="0.4" opacity="0.12"/>
      <line x1="910" y1="301" x2="928" y2="301.5" stroke="#4A2E1A" stroke-width="0.4" opacity="0.12"/>
      <line x1="910" y1="307" x2="928" y2="306.5" stroke="#4A2E1A" stroke-width="0.4" opacity="0.12"/>
      <line x1="910" y1="315" x2="928" y2="315" stroke="#4A2E1A" stroke-width="0.4" opacity="0.12"/>
      <line x1="910" y1="325" x2="928" y2="325" stroke="#4A2E1A" stroke-width="0.4" opacity="0.12"/>
      <line x1="910" y1="332" x2="928" y2="332.5" stroke="#4A2E1A" stroke-width="0.4" opacity="0.12"/>
      <line x1="910" y1="341" x2="928" y2="340.5" stroke="#4A2E1A" stroke-width="0.4" opacity="0.12"/>
      <line x1="910" y1="347" x2="928" y2="346.5" stroke="#4A2E1A" stroke-width="0.4" opacity="0.12"/>
      <line x1="910" y1="355" x2="928" y2="354.5" stroke="#4A2E1A" stroke-width="0.4" opacity="0.12"/>
      <line x1="910" y1="365" x2="928" y2="365" stroke="#4A2E1A" stroke-width="0.4" opacity="0.12"/>
      <line x1="910" y1="372" x2="928" y2="371.5" stroke="#4A2E1A" stroke-width="0.4" opacity="0.12"/>

  </g>
  <!-- Upper keyboard -->
    <g id="keyboard-upper">
      <!-- Key bed (recessed black area) -->
      <rect x="60" y="52" width="848" height="152"
            fill="#111111" rx="1"/>
      <!-- White keys -->
      <rect id="upper-C2" class="white-key" x="61" y="53" width="22.5" height="150" rx="1.5" fill="#F2EDE4" stroke="#B5ADA3" stroke-width="0.5"/>
      <rect id="upper-D2" class="white-key" x="84.5" y="53" width="22.5" height="150" rx="1.5" fill="#F2EDE4" stroke="#B5ADA3" stroke-width="0.5"/>
      <rect id="upper-E2" class="white-key" x="108" y="53" width="22.5" height="150" rx="1.5" fill="#F2EDE4" stroke="#B5ADA3" stroke-width="0.5"/>
      <rect id="upper-F2" class="white-key" x="131.5" y="53" width="22.5" height="150" rx="1.5" fill="#F2EDE4" stroke="#B5ADA3" stroke-width="0.5"/>
      <rect id="upper-G2" class="white-key" x="155" y="53" width="22.5" height="150" rx="1.5" fill="#F2EDE4" stroke="#B5ADA3" stroke-width="0.5"/>
      <rect id="upper-A2" class="white-key" x="178.5" y="53" width="22.5" height="150" rx="1.5" fill="#F2EDE4" stroke="#B5ADA3" stroke-width="0.5"/>
      <rect id="upper-B2" class="white-key" x="202" y="53" width="22.5" height="150" rx="1.5" fill="#F2EDE4" stroke="#B5ADA3" stroke-width="0.5"/>
      <rect id="upper-C3" class="white-key" x="225.5" y="53" width="22.5" height="150" rx="1.5" fill="#F2EDE4" stroke="#B5ADA3" stroke-width="0.5"/>
      <rect id="upper-D3" class="white-key" x="249" y="53" width="22.5" height="150" rx="1.5" fill="#F2EDE4" stroke="#B5ADA3" stroke-width="0.5"/>
      <rect id="upper-E3" class="white-key" x="272.5" y="53" width="22.5" height="150" rx="1.5" fill="#F2EDE4" stroke="#B5ADA3" stroke-width="0.5"/>
      <rect id="upper-F3" class="white-key" x="296" y="53" width="22.5" height="150" rx="1.5" fill="#F2EDE4" stroke="#B5ADA3" stroke-width="0.5"/>
      <rect id="upper-G3" class="white-key" x="319.5" y="53" width="22.5" height="150" rx="1.5" fill="#F2EDE4" stroke="#B5ADA3" stroke-width="0.5"/>
      <rect id="upper-A3" class="white-key" x="343" y="53" width="22.5" height="150" rx="1.5" fill="#F2EDE4" stroke="#B5ADA3" stroke-width="0.5"/>
      <rect id="upper-B3" class="white-key" x="366.5" y="53" width="22.5" height="150" rx="1.5" fill="#F2EDE4" stroke="#B5ADA3" stroke-width="0.5"/>
      <rect id="upper-C4" class="white-key" x="390" y="53" width="22.5" height="150" rx="1.5" fill="#F2EDE4" stroke="#B5ADA3" stroke-width="0.5"/>
      <rect id="upper-D4" class="white-key" x="413.5" y="53" width="22.5" height="150" rx="1.5" fill="#F2EDE4" stroke="#B5ADA3" stroke-width="0.5"/>
      <rect id="upper-E4" class="white-key" x="437" y="53" width="22.5" height="150" rx="1.5" fill="#F2EDE4" stroke="#B5ADA3" stroke-width="0.5"/>
      <rect id="upper-F4" class="white-key" x="460.5" y="53" width="22.5" height="150" rx="1.5" fill="#F2EDE4" stroke="#B5ADA3" stroke-width="0.5"/>
      <rect id="upper-G4" class="white-key" x="484" y="53" width="22.5" height="150" rx="1.5" fill="#F2EDE4" stroke="#B5ADA3" stroke-width="0.5"/>
      <rect id="upper-A4" class="white-key" x="507.5" y="53" width="22.5" height="150" rx="1.5" fill="#F2EDE4" stroke="#B5ADA3" stroke-width="0.5"/>
      <rect id="upper-B4" class="white-key" x="531" y="53" width="22.5" height="150" rx="1.5" fill="#F2EDE4" stroke="#B5ADA3" stroke-width="0.5"/>
      <rect id="upper-C5" class="white-key" x="554.5" y="53" width="22.5" height="150" rx="1.5" fill="#F2EDE4" stroke="#B5ADA3" stroke-width="0.5"/>
      <rect id="upper-D5" class="white-key" x="578" y="53" width="22.5" height="150" rx="1.5" fill="#F2EDE4" stroke="#B5ADA3" stroke-width="0.5"/>
      <rect id="upper-E5" class="white-key" x="601.5" y="53" width="22.5" height="150" rx="1.5" fill="#F2EDE4" stroke="#B5ADA3" stroke-width="0.5"/>
      <rect id="upper-F5" class="white-key" x="625" y="53" width="22.5" height="150" rx="1.5" fill="#F2EDE4" stroke="#B5ADA3" stroke-width="0.5"/>
      <rect id="upper-G5" class="white-key" x="648.5" y="53" width="22.5" height="150" rx="1.5" fill="#F2EDE4" stroke="#B5ADA3" stroke-width="0.5"/>
      <rect id="upper-A5" class="white-key" x="672" y="53" width="22.5" height="150" rx="1.5" fill="#F2EDE4" stroke="#B5ADA3" stroke-width="0.5"/>
      <rect id="upper-B5" class="white-key" x="695.5" y="53" width="22.5" height="150" rx="1.5" fill="#F2EDE4" stroke="#B5ADA3" stroke-width="0.5"/>
      <rect id="upper-C6" class="white-key" x="719" y="53" width="22.5" height="150" rx="1.5" fill="#F2EDE4" stroke="#B5ADA3" stroke-width="0.5"/>
      <rect id="upper-D6" class="white-key" x="742.5" y="53" width="22.5" height="150" rx="1.5" fill="#F2EDE4" stroke="#B5ADA3" stroke-width="0.5"/>
      <rect id="upper-E6" class="white-key" x="766" y="53" width="22.5" height="150" rx="1.5" fill="#F2EDE4" stroke="#B5ADA3" stroke-width="0.5"/>
      <rect id="upper-F6" class="white-key" x="789.5" y="53" width="22.5" height="150" rx="1.5" fill="#F2EDE4" stroke="#B5ADA3" stroke-width="0.5"/>
      <rect id="upper-G6" class="white-key" x="813" y="53" width="22.5" height="150" rx="1.5" fill="#F2EDE4" stroke="#B5ADA3" stroke-width="0.5"/>
      <rect id="upper-A6" class="white-key" x="836.5" y="53" width="22.5" height="150" rx="1.5" fill="#F2EDE4" stroke="#B5ADA3" stroke-width="0.5"/>
      <rect id="upper-B6" class="white-key" x="860" y="53" width="22.5" height="150" rx="1.5" fill="#F2EDE4" stroke="#B5ADA3" stroke-width="0.5"/>
      <rect id="upper-C7" class="white-key" x="883.5" y="53" width="22.5" height="150" rx="1.5" fill="#F2EDE4" stroke="#B5ADA3" stroke-width="0.5"/>
      <!-- Black keys -->
      <rect id="upper-Cs2" class="black-key" x="78" y="53" width="13" height="95" rx="1" fill="#1C1C1C" stroke="#0A0A0A" stroke-width="0.3"/>
      <rect id="upper-Ds2" class="black-key" x="101.5" y="53" width="13" height="95" rx="1" fill="#1C1C1C" stroke="#0A0A0A" stroke-width="0.3"/>
      <rect id="upper-Fs2" class="black-key" x="148.5" y="53" width="13" height="95" rx="1" fill="#1C1C1C" stroke="#0A0A0A" stroke-width="0.3"/>
      <rect id="upper-Gs2" class="black-key" x="172" y="53" width="13" height="95" rx="1" fill="#1C1C1C" stroke="#0A0A0A" stroke-width="0.3"/>
      <rect id="upper-As2" class="black-key" x="195.5" y="53" width="13" height="95" rx="1" fill="#1C1C1C" stroke="#0A0A0A" stroke-width="0.3"/>
      <rect id="upper-Cs3" class="black-key" x="242.5" y="53" width="13" height="95" rx="1" fill="#1C1C1C" stroke="#0A0A0A" stroke-width="0.3"/>
      <rect id="upper-Ds3" class="black-key" x="266" y="53" width="13" height="95" rx="1" fill="#1C1C1C" stroke="#0A0A0A" stroke-width="0.3"/>
      <rect id="upper-Fs3" class="black-key" x="313" y="53" width="13" height="95" rx="1" fill="#1C1C1C" stroke="#0A0A0A" stroke-width="0.3"/>
      <rect id="upper-Gs3" class="black-key" x="336.5" y="53" width="13" height="95" rx="1" fill="#1C1C1C" stroke="#0A0A0A" stroke-width="0.3"/>
      <rect id="upper-As3" class="black-key" x="360" y="53" width="13" height="95" rx="1" fill="#1C1C1C" stroke="#0A0A0A" stroke-width="0.3"/>
      <rect id="upper-Cs4" class="black-key" x="407" y="53" width="13" height="95" rx="1" fill="#1C1C1C" stroke="#0A0A0A" stroke-width="0.3"/>
      <rect id="upper-Ds4" class="black-key" x="430.5" y="53" width="13" height="95" rx="1" fill="#1C1C1C" stroke="#0A0A0A" stroke-width="0.3"/>
      <rect id="upper-Fs4" class="black-key" x="477.5" y="53" width="13" height="95" rx="1" fill="#1C1C1C" stroke="#0A0A0A" stroke-width="0.3"/>
      <rect id="upper-Gs4" class="black-key" x="501" y="53" width="13" height="95" rx="1" fill="#1C1C1C" stroke="#0A0A0A" stroke-width="0.3"/>
      <rect id="upper-As4" class="black-key" x="524.5" y="53" width="13" height="95" rx="1" fill="#1C1C1C" stroke="#0A0A0A" stroke-width="0.3"/>
      <rect id="upper-Cs5" class="black-key" x="571.5" y="53" width="13" height="95" rx="1" fill="#1C1C1C" stroke="#0A0A0A" stroke-width="0.3"/>
      <rect id="upper-Ds5" class="black-key" x="595" y="53" width="13" height="95" rx="1" fill="#1C1C1C" stroke="#0A0A0A" stroke-width="0.3"/>
      <rect id="upper-Fs5" class="black-key" x="642" y="53" width="13" height="95" rx="1" fill="#1C1C1C" stroke="#0A0A0A" stroke-width="0.3"/>
      <rect id="upper-Gs5" class="black-key" x="665.5" y="53" width="13" height="95" rx="1" fill="#1C1C1C" stroke="#0A0A0A" stroke-width="0.3"/>
      <rect id="upper-As5" class="black-key" x="689" y="53" width="13" height="95" rx="1" fill="#1C1C1C" stroke="#0A0A0A" stroke-width="0.3"/>
      <rect id="upper-Cs6" class="black-key" x="736" y="53" width="13" height="95" rx="1" fill="#1C1C1C" stroke="#0A0A0A" stroke-width="0.3"/>
      <rect id="upper-Ds6" class="black-key" x="759.5" y="53" width="13" height="95" rx="1" fill="#1C1C1C" stroke="#0A0A0A" stroke-width="0.3"/>
      <rect id="upper-Fs6" class="black-key" x="806.5" y="53" width="13" height="95" rx="1" fill="#1C1C1C" stroke="#0A0A0A" stroke-width="0.3"/>
      <rect id="upper-Gs6" class="black-key" x="830" y="53" width="13" height="95" rx="1" fill="#1C1C1C" stroke="#0A0A0A" stroke-width="0.3"/>
      <rect id="upper-As6" class="black-key" x="853.5" y="53" width="13" height="95" rx="1" fill="#1C1C1C" stroke="#0A0A0A" stroke-width="0.3"/>
    </g>

  <!-- Lower keyboard -->
    <g id="keyboard-lower">
      <!-- Key bed (recessed black area) -->
      <rect x="60" y="222" width="848" height="152"
            fill="#111111" rx="1"/>
      <!-- White keys -->
      <rect id="lower-C2" class="white-key" x="61" y="223" width="22.5" height="150" rx="1.5" fill="#F2EDE4" stroke="#B5ADA3" stroke-width="0.5"/>
      <rect id="lower-D2" class="white-key" x="84.5" y="223" width="22.5" height="150" rx="1.5" fill="#F2EDE4" stroke="#B5ADA3" stroke-width="0.5"/>
      <rect id="lower-E2" class="white-key" x="108" y="223" width="22.5" height="150" rx="1.5" fill="#F2EDE4" stroke="#B5ADA3" stroke-width="0.5"/>
      <rect id="lower-F2" class="white-key" x="131.5" y="223" width="22.5" height="150" rx="1.5" fill="#F2EDE4" stroke="#B5ADA3" stroke-width="0.5"/>
      <rect id="lower-G2" class="white-key" x="155" y="223" width="22.5" height="150" rx="1.5" fill="#F2EDE4" stroke="#B5ADA3" stroke-width="0.5"/>
      <rect id="lower-A2" class="white-key" x="178.5" y="223" width="22.5" height="150" rx="1.5" fill="#F2EDE4" stroke="#B5ADA3" stroke-width="0.5"/>
      <rect id="lower-B2" class="white-key" x="202" y="223" width="22.5" height="150" rx="1.5" fill="#F2EDE4" stroke="#B5ADA3" stroke-width="0.5"/>
      <rect id="lower-C3" class="white-key" x="225.5" y="223" width="22.5" height="150" rx="1.5" fill="#F2EDE4" stroke="#B5ADA3" stroke-width="0.5"/>
      <rect id="lower-D3" class="white-key" x="249" y="223" width="22.5" height="150" rx="1.5" fill="#F2EDE4" stroke="#B5ADA3" stroke-width="0.5"/>
      <rect id="lower-E3" class="white-key" x="272.5" y="223" width="22.5" height="150" rx="1.5" fill="#F2EDE4" stroke="#B5ADA3" stroke-width="0.5"/>
      <rect id="lower-F3" class="white-key" x="296" y="223" width="22.5" height="150" rx="1.5" fill="#F2EDE4" stroke="#B5ADA3" stroke-width="0.5"/>
      <rect id="lower-G3" class="white-key" x="319.5" y="223" width="22.5" height="150" rx="1.5" fill="#F2EDE4" stroke="#B5ADA3" stroke-width="0.5"/>
      <rect id="lower-A3" class="white-key" x="343" y="223" width="22.5" height="150" rx="1.5" fill="#F2EDE4" stroke="#B5ADA3" stroke-width="0.5"/>
      <rect id="lower-B3" class="white-key" x="366.5" y="223" width="22.5" height="150" rx="1.5" fill="#F2EDE4" stroke="#B5ADA3" stroke-width="0.5"/>
      <rect id="lower-C4" class="white-key" x="390" y="223" width="22.5" height="150" rx="1.5" fill="#F2EDE4" stroke="#B5ADA3" stroke-width="0.5"/>
      <rect id="lower-D4" class="white-key" x="413.5" y="223" width="22.5" height="150" rx="1.5" fill="#F2EDE4" stroke="#B5ADA3" stroke-width="0.5"/>
      <rect id="lower-E4" class="white-key" x="437" y="223" width="22.5" height="150" rx="1.5" fill="#F2EDE4" stroke="#B5ADA3" stroke-width="0.5"/>
      <rect id="lower-F4" class="white-key" x="460.5" y="223" width="22.5" height="150" rx="1.5" fill="#F2EDE4" stroke="#B5ADA3" stroke-width="0.5"/>
      <rect id="lower-G4" class="white-key" x="484" y="223" width="22.5" height="150" rx="1.5" fill="#F2EDE4" stroke="#B5ADA3" stroke-width="0.5"/>
      <rect id="lower-A4" class="white-key" x="507.5" y="223" width="22.5" height="150" rx="1.5" fill="#F2EDE4" stroke="#B5ADA3" stroke-width="0.5"/>
      <rect id="lower-B4" class="white-key" x="531" y="223" width="22.5" height="150" rx="1.5" fill="#F2EDE4" stroke="#B5ADA3" stroke-width="0.5"/>
      <rect id="lower-C5" class="white-key" x="554.5" y="223" width="22.5" height="150" rx="1.5" fill="#F2EDE4" stroke="#B5ADA3" stroke-width="0.5"/>
      <rect id="lower-D5" class="white-key" x="578" y="223" width="22.5" height="150" rx="1.5" fill="#F2EDE4" stroke="#B5ADA3" stroke-width="0.5"/>
      <rect id="lower-E5" class="white-key" x="601.5" y="223" width="22.5" height="150" rx="1.5" fill="#F2EDE4" stroke="#B5ADA3" stroke-width="0.5"/>
      <rect id="lower-F5" class="white-key" x="625" y="223" width="22.5" height="150" rx="1.5" fill="#F2EDE4" stroke="#B5ADA3" stroke-width="0.5"/>
      <rect id="lower-G5" class="white-key" x="648.5" y="223" width="22.5" height="150" rx="1.5" fill="#F2EDE4" stroke="#B5ADA3" stroke-width="0.5"/>
      <rect id="lower-A5" class="white-key" x="672" y="223" width="22.5" height="150" rx="1.5" fill="#F2EDE4" stroke="#B5ADA3" stroke-width="0.5"/>
      <rect id="lower-B5" class="white-key" x="695.5" y="223" width="22.5" height="150" rx="1.5" fill="#F2EDE4" stroke="#B5ADA3" stroke-width="0.5"/>
      <rect id="lower-C6" class="white-key" x="719" y="223" width="22.5" height="150" rx="1.5" fill="#F2EDE4" stroke="#B5ADA3" stroke-width="0.5"/>
      <rect id="lower-D6" class="white-key" x="742.5" y="223" width="22.5" height="150" rx="1.5" fill="#F2EDE4" stroke="#B5ADA3" stroke-width="0.5"/>
      <rect id="lower-E6" class="white-key" x="766" y="223" width="22.5" height="150" rx="1.5" fill="#F2EDE4" stroke="#B5ADA3" stroke-width="0.5"/>
      <rect id="lower-F6" class="white-key" x="789.5" y="223" width="22.5" height="150" rx="1.5" fill="#F2EDE4" stroke="#B5ADA3" stroke-width="0.5"/>
      <rect id="lower-G6" class="white-key" x="813" y="223" width="22.5" height="150" rx="1.5" fill="#F2EDE4" stroke="#B5ADA3" stroke-width="0.5"/>
      <rect id="lower-A6" class="white-key" x="836.5" y="223" width="22.5" height="150" rx="1.5" fill="#F2EDE4" stroke="#B5ADA3" stroke-width="0.5"/>
      <rect id="lower-B6" class="white-key" x="860" y="223" width="22.5" height="150" rx="1.5" fill="#F2EDE4" stroke="#B5ADA3" stroke-width="0.5"/>
      <rect id="lower-C7" class="white-key" x="883.5" y="223" width="22.5" height="150" rx="1.5" fill="#F2EDE4" stroke="#B5ADA3" stroke-width="0.5"/>
      <!-- Black keys -->
      <rect id="lower-Cs2" class="black-key" x="78" y="223" width="13" height="95" rx="1" fill="#1C1C1C" stroke="#0A0A0A" stroke-width="0.3"/>
      <rect id="lower-Ds2" class="black-key" x="101.5" y="223" width="13" height="95" rx="1" fill="#1C1C1C" stroke="#0A0A0A" stroke-width="0.3"/>
      <rect id="lower-Fs2" class="black-key" x="148.5" y="223" width="13" height="95" rx="1" fill="#1C1C1C" stroke="#0A0A0A" stroke-width="0.3"/>
      <rect id="lower-Gs2" class="black-key" x="172" y="223" width="13" height="95" rx="1" fill="#1C1C1C" stroke="#0A0A0A" stroke-width="0.3"/>
      <rect id="lower-As2" class="black-key" x="195.5" y="223" width="13" height="95" rx="1" fill="#1C1C1C" stroke="#0A0A0A" stroke-width="0.3"/>
      <rect id="lower-Cs3" class="black-key" x="242.5" y="223" width="13" height="95" rx="1" fill="#1C1C1C" stroke="#0A0A0A" stroke-width="0.3"/>
      <rect id="lower-Ds3" class="black-key" x="266" y="223" width="13" height="95" rx="1" fill="#1C1C1C" stroke="#0A0A0A" stroke-width="0.3"/>
      <rect id="lower-Fs3" class="black-key" x="313" y="223" width="13" height="95" rx="1" fill="#1C1C1C" stroke="#0A0A0A" stroke-width="0.3"/>
      <rect id="lower-Gs3" class="black-key" x="336.5" y="223" width="13" height="95" rx="1" fill="#1C1C1C" stroke="#0A0A0A" stroke-width="0.3"/>
      <rect id="lower-As3" class="black-key" x="360" y="223" width="13" height="95" rx="1" fill="#1C1C1C" stroke="#0A0A0A" stroke-width="0.3"/>
      <rect id="lower-Cs4" class="black-key" x="407" y="223" width="13" height="95" rx="1" fill="#1C1C1C" stroke="#0A0A0A" stroke-width="0.3"/>
      <rect id="lower-Ds4" class="black-key" x="430.5" y="223" width="13" height="95" rx="1" fill="#1C1C1C" stroke="#0A0A0A" stroke-width="0.3"/>
      <rect id="lower-Fs4" class="black-key" x="477.5" y="223" width="13" height="95" rx="1" fill="#1C1C1C" stroke="#0A0A0A" stroke-width="0.3"/>
      <rect id="lower-Gs4" class="black-key" x="501" y="223" width="13" height="95" rx="1" fill="#1C1C1C" stroke="#0A0A0A" stroke-width="0.3"/>
      <rect id="lower-As4" class="black-key" x="524.5" y="223" width="13" height="95" rx="1" fill="#1C1C1C" stroke="#0A0A0A" stroke-width="0.3"/>
      <rect id="lower-Cs5" class="black-key" x="571.5" y="223" width="13" height="95" rx="1" fill="#1C1C1C" stroke="#0A0A0A" stroke-width="0.3"/>
      <rect id="lower-Ds5" class="black-key" x="595" y="223" width="13" height="95" rx="1" fill="#1C1C1C" stroke="#0A0A0A" stroke-width="0.3"/>
      <rect id="lower-Fs5" class="black-key" x="642" y="223" width="13" height="95" rx="1" fill="#1C1C1C" stroke="#0A0A0A" stroke-width="0.3"/>
      <rect id="lower-Gs5" class="black-key" x="665.5" y="223" width="13" height="95" rx="1" fill="#1C1C1C" stroke="#0A0A0A" stroke-width="0.3"/>
      <rect id="lower-As5" class="black-key" x="689" y="223" width="13" height="95" rx="1" fill="#1C1C1C" stroke="#0A0A0A" stroke-width="0.3"/>
      <rect id="lower-Cs6" class="black-key" x="736" y="223" width="13" height="95" rx="1" fill="#1C1C1C" stroke="#0A0A0A" stroke-width="0.3"/>
      <rect id="lower-Ds6" class="black-key" x="759.5" y="223" width="13" height="95" rx="1" fill="#1C1C1C" stroke="#0A0A0A" stroke-width="0.3"/>
      <rect id="lower-Fs6" class="black-key" x="806.5" y="223" width="13" height="95" rx="1" fill="#1C1C1C" stroke="#0A0A0A" stroke-width="0.3"/>
      <rect id="lower-Gs6" class="black-key" x="830" y="223" width="13" height="95" rx="1" fill="#1C1C1C" stroke="#0A0A0A" stroke-width="0.3"/>
      <rect id="lower-As6" class="black-key" x="853.5" y="223" width="13" height="95" rx="1" fill="#1C1C1C" stroke="#0A0A0A" stroke-width="0.3"/>
    </g>

  <!-- Front panel (walnut, below lower keyboard) -->
  <g id="front-panel">
    <rect x="40" y="376" width="888" height="45"
          fill="#6B4226" stroke="#3E2313" stroke-width="0.5"/>
      <line x1="40" y1="383" x2="928" y2="383" stroke="#4A2E1A" stroke-width="0.4" opacity="0.12"/>
      <line x1="40" y1="393" x2="928" y2="393.5" stroke="#4A2E1A" stroke-width="0.4" opacity="0.12"/>
      <line x1="40" y1="400" x2="928" y2="400" stroke="#4A2E1A" stroke-width="0.4" opacity="0.12"/>
      <line x1="40" y1="409" x2="928" y2="409" stroke="#4A2E1A" stroke-width="0.4" opacity="0.12"/>
      <line x1="40" y1="415" x2="928" y2="415.5" stroke="#4A2E1A" stroke-width="0.4" opacity="0.12"/>
    <!-- SYNTHI label plate -->
    <rect id="label-plate"
          x="429" y="384.5"
          width="110" height="28"
          rx="2" fill="#1E3A5F" stroke="#0F2840" stroke-width="0.5"/>
    <text id="label-synthi"
          x="484" y="400.5"
          text-anchor="middle"
          font-family="'Helvetica Neue', Helvetica, Arial, sans-serif"
          font-size="11" font-weight="bold" letter-spacing="4"
          fill="#C0D8F0">SYNTHI</text>
    <text id="label-ems"
          x="484" y="408.5"
          text-anchor="middle"
          font-family="'Helvetica Neue', Helvetica, Arial, sans-serif"
          font-size="4" letter-spacing="1.5"
          fill="#C0D8F0" opacity="0.7">EMS (LONDON) LTD</text>
  </g>

</svg>
