<!--
  Icons: Tabler Icons (MIT)
  https://tabler-icons.io/
-->
<svg xmlns="http://www.w3.org/2000/svg" style="display:none">
  <symbol id="ti-menu-2" viewBox="0 0 24 24">
    <path d="M4 6l16 0" />
    <path d="M4 12l16 0" />
    <path d="M4 18l16 0" />
  </symbol>

  <symbol id="ti-hand-stop" viewBox="0 0 24 24">
    <path d="M8 13v-7.5a1.5 1.5 0 0 1 3 0v6.5" />
    <path d="M11 5.5v-2a1.5 1.5 0 1 1 3 0v8.5" />
    <path d="M14 5.5a1.5 1.5 0 0 1 3 0v6.5" />
    <path d="M17 7.5a1.5 1.5 0 0 1 3 0v8.5a6 6 0 0 1 -6 6h-2h.208a6 6 0 0 1 -5.012 -2.7a69.74 69.74 0 0 1 -.196 -.3c-.312 -.479 -1.407 -2.388 -3.286 -5.728a1.5 1.5 0 0 1 .536 -2.022a1.867 1.867 0 0 1 2.28 .28l1.47 1.47" />
  </symbol>

  <symbol id="ti-zoom-cancel" viewBox="0 0 24 24">
    <path d="M10 10m-7 0a7 7 0 1 0 14 0a7 7 0 1 0 -14 0" />
    <path d="M8 8l4 4" />
    <path d="M12 8l-4 4" />
    <path d="M21 21l-6 -6" />
  </symbol>

  <symbol id="ti-arrows-maximize" viewBox="0 0 24 24">
    <path d="M16 4l4 0l0 4" />
    <path d="M14 10l6 -6" />
    <path d="M8 20l-4 0l0 -4" />
    <path d="M4 20l6 -6" />
    <path d="M16 20l4 0l0 -4" />
    <path d="M14 14l6 6" />
    <path d="M8 4l-4 0l0 4" />
    <path d="M4 4l6 6" />
  </symbol>

  <symbol id="ti-diamond" viewBox="0 0 24 24">
    <path d="M6 5h12l3 5l-8.5 10l-8.5 -10l3 -5" />
    <path d="M10 5l-2 5l4 6l4 -6l-2 -5" />
  </symbol>

  <symbol id="ti-focus-2" viewBox="0 0 24 24">
    <circle cx="12" cy="12" r="3" />
    <path d="M3 12h3m12 0h3M12 3v3m0 12v3" />
  </symbol>

  <symbol id="ti-volume" viewBox="0 0 24 24">
    <path d="M15 8a5 5 0 0 1 0 8" />
    <path d="M17.7 5a9 9 0 0 1 0 14" />
    <path d="M6 15h-2a1 1 0 0 1 -1 -1v-4a1 1 0 0 1 1 -1h2l3.5 -4.5a.8 .8 0 0 1 1.5 .5v14a.8 .8 0 0 1 -1.5 .5l-3.5 -4.5" />
  </symbol>

  <symbol id="ti-settings" viewBox="0 0 24 24">
    <path d="M10.325 4.317c.426 -1.756 2.924 -1.756 3.35 0a1.724 1.724 0 0 0 2.573 1.066c1.543 -.94 3.31 .826 2.37 2.37a1.724 1.724 0 0 0 1.065 2.572c1.756 .426 1.756 2.924 0 3.35a1.724 1.724 0 0 0 -1.066 2.573c.94 1.543 -.826 3.31 -2.37 2.37a1.724 1.724 0 0 0 -2.572 1.065c-.426 1.756 -2.924 1.756 -3.35 0a1.724 1.724 0 0 0 -2.573 -1.066c-1.543 .94 -3.31 -.826 -2.37 -2.37a1.724 1.724 0 0 0 -1.065 -2.572c-1.756 -.426 -1.756 -2.924 0 -3.35a1.724 1.724 0 0 0 1.066 -2.573c-.94 -1.543 .826 -3.31 2.37 -2.37c1 .608 2.296 .07 2.572 -1.065z" />
    <circle cx="12" cy="12" r="3" />
  </symbol>
</svg>
