<!--
  Icons: Tabler Icons (MIT)
  https://tabler-icons.io/
-->
<svg xmlns="http://www.w3.org/2000/svg" style="display:none">
  <symbol id="ti-menu-2" viewBox="0 0 24 24">
    <path d="M4 6l16 0" />
    <path d="M4 12l16 0" />
    <path d="M4 18l16 0" />
  </symbol>

  <symbol id="ti-hand-stop" viewBox="0 0 24 24">
    <path d="M8 13v-7.5a1.5 1.5 0 0 1 3 0v6.5" />
    <path d="M11 5.5v-2a1.5 1.5 0 1 1 3 0v8.5" />
    <path d="M14 5.5a1.5 1.5 0 0 1 3 0v6.5" />
    <path d="M17 7.5a1.5 1.5 0 0 1 3 0v8.5a6 6 0 0 1 -6 6h-2h.208a6 6 0 0 1 -5.012 -2.7a69.74 69.74 0 0 1 -.196 -.3c-.312 -.479 -1.407 -2.388 -3.286 -5.728a1.5 1.5 0 0 1 .536 -2.022a1.867 1.867 0 0 1 2.28 .28l1.47 1.47" />
  </symbol>

  <symbol id="ti-zoom-cancel" viewBox="0 0 24 24">
    <path d="M10 10m-7 0a7 7 0 1 0 14 0a7 7 0 1 0 -14 0" />
    <path d="M8 8l4 4" />
    <path d="M12 8l-4 4" />
    <path d="M21 21l-6 -6" />
  </symbol>

  <symbol id="ti-arrows-maximize" viewBox="0 0 24 24">
    <path d="M16 4l4 0l0 4" />
    <path d="M14 10l6 -6" />
    <path d="M8 20l-4 0l0 -4" />
    <path d="M4 20l6 -6" />
    <path d="M16 20l4 0l0 -4" />
    <path d="M14 14l6 6" />
    <path d="M8 4l-4 0l0 4" />
    <path d="M4 4l6 6" />
  </symbol>
</svg>
