<!--
  Icons: Tabler Icons (MIT)
  https://tabler-icons.io/
-->
<svg xmlns="http://www.w3.org/2000/svg" style="display:none">
  <symbol id="ti-menu-2" viewBox="0 0 24 24">
    <path d="M4 6l16 0" />
    <path d="M4 12l16 0" />
    <path d="M4 18l16 0" />
  </symbol>

  <symbol id="ti-hand-stop" viewBox="0 0 24 24">
    <path d="M8 13v-7.5a1.5 1.5 0 0 1 3 0v6.5" />
    <path d="M11 5.5v-2a1.5 1.5 0 1 1 3 0v8.5" />
    <path d="M14 5.5a1.5 1.5 0 0 1 3 0v6.5" />
    <path d="M17 7.5a1.5 1.5 0 0 1 3 0v8.5a6 6 0 0 1 -6 6h-2h.208a6 6 0 0 1 -5.012 -2.7a69.74 69.74 0 0 1 -.196 -.3c-.312 -.479 -1.407 -2.388 -3.286 -5.728a1.5 1.5 0 0 1 .536 -2.022a1.867 1.867 0 0 1 2.28 .28l1.47 1.47" />
  </symbol>

  <symbol id="ti-zoom-cancel" viewBox="0 0 24 24">
    <path d="M10 10m-7 0a7 7 0 1 0 14 0a7 7 0 1 0 -14 0" />
    <path d="M8 8l4 4" />
    <path d="M12 8l-4 4" />
    <path d="M21 21l-6 -6" />
  </symbol>

  <symbol id="ti-arrows-maximize" viewBox="0 0 24 24">
    <path d="M16 4l4 0l0 4" />
    <path d="M14 10l6 -6" />
    <path d="M8 20l-4 0l0 -4" />
    <path d="M4 20l6 -6" />
    <path d="M16 20l4 0l0 -4" />
    <path d="M14 14l6 6" />
    <path d="M8 4l-4 0l0 4" />
    <path d="M4 4l6 6" />
  </symbol>

  <symbol id="ti-diamond" viewBox="0 0 24 24">
    <path d="M6 5h12l3 5l-8.5 10l-8.5 -10l3 -5" />
    <path d="M10 5l-2 5l4 6l4 -6l-2 -5" />
  </symbol>

  <symbol id="ti-focus-2" viewBox="0 0 24 24">
    <circle cx="12" cy="12" r="3" />
    <path d="M3 12h3m12 0h3M12 3v3m0 12v3" />
  </symbol>

  <symbol id="ti-volume" viewBox="0 0 24 24">
    <path d="M15 8a5 5 0 0 1 0 8" />
    <path d="M17.7 5a9 9 0 0 1 0 14" />
    <path d="M6 15h-2a1 1 0 0 1 -1 -1v-4a1 1 0 0 1 1 -1h2l3.5 -4.5a.8 .8 0 0 1 1.5 .5v14a.8 .8 0 0 1 -1.5 .5l-3.5 -4.5" />
  </symbol>

  <symbol id="ti-volume-off" viewBox="0 0 24 24">
    <path d="M15 8a5 5 0 0 1 1.912 4.934m-1.377 2.602a5 5 0 0 1 -.535 .464" />
    <path d="M17.7 5a9 9 0 0 1 2.362 11.086m-1.676 2.299a9 9 0 0 1 -.686 .615" />
    <path d="M9.069 5.054l1.431 -1.554a.8 .8 0 0 1 1.5 .5v14a.8 .8 0 0 1 -1.5 .5l-3.5 -4.5h-2a1 1 0 0 1 -1 -1v-4a1 1 0 0 1 1 -1h2l.294 -.38" />
    <path d="M3 3l18 18" />
  </symbol>

  <symbol id="ti-settings-2" viewBox="0 0 24 24">
    <path d="M19.875 6.27a2.225 2.225 0 0 1 1.125 1.948v7.284c0 .809 -.443 1.555 -1.158 1.948l-6.75 4.27a2.269 2.269 0 0 1 -2.184 0l-6.75 -4.27a2.225 2.225 0 0 1 -1.158 -1.948v-7.285c0 -.809 .443 -1.554 1.158 -1.947l6.75 -3.98a2.33 2.33 0 0 1 2.25 0l6.75 3.98h-.033z" />
    <path d="M12 12m-3 0a3 3 0 1 0 6 0a3 3 0 1 0 -6 0" />
  </symbol>

  <symbol id="ti-settings" viewBox="0 0 24 24">
    <path d="M10.325 4.317c.426 -1.756 2.924 -1.756 3.35 0a1.724 1.724 0 0 0 2.573 1.066c1.543 -.94 3.31 .826 2.37 2.37a1.724 1.724 0 0 0 1.065 2.572c1.756 .426 1.756 2.924 0 3.35a1.724 1.724 0 0 0 -1.066 2.573c.94 1.543 -.826 3.31 -2.37 2.37a1.724 1.724 0 0 0 -2.572 1.065c-.426 1.756 -2.924 1.756 -3.35 0a1.724 1.724 0 0 0 -2.573 -1.066c-1.543 .94 -3.31 -.826 -2.37 -2.37a1.724 1.724 0 0 0 -1.065 -2.572c-1.756 -.426 -1.756 -2.924 0 -3.35a1.724 1.724 0 0 0 1.066 -2.573c-.94 -1.543 .826 -3.31 2.37 -2.37c1 .608 2.296 .07 2.572 -1.065z" />
    <circle cx="12" cy="12" r="3" />
  </symbol>

  <symbol id="ti-files" viewBox="0 0 24 24">
    <path d="M15 3v4a1 1 0 0 0 1 1h4" />
    <path d="M18 17h-7a2 2 0 0 1 -2 -2v-10a2 2 0 0 1 2 -2h4l5 5v7a2 2 0 0 1 -2 2z" />
    <path d="M16 17v2a2 2 0 0 1 -2 2h-7a2 2 0 0 1 -2 -2v-10a2 2 0 0 1 2 -2h2" />
  </symbol>

  <symbol id="ti-device-floppy" viewBox="0 0 24 24">
    <path d="M6 4h10l4 4v10a2 2 0 0 1 -2 2h-12a2 2 0 0 1 -2 -2v-12a2 2 0 0 1 2 -2" />
    <path d="M12 14m-2 0a2 2 0 1 0 4 0a2 2 0 1 0 -4 0" />
    <path d="M14 4l0 4l-6 0l0 -4" />
  </symbol>

  <symbol id="ti-trash" viewBox="0 0 24 24">
    <path d="M4 7l16 0" />
    <path d="M10 11l0 6" />
    <path d="M14 11l0 6" />
    <path d="M5 7l1 12a2 2 0 0 0 2 2h8a2 2 0 0 0 2 -2l1 -12" />
    <path d="M9 7v-3a1 1 0 0 1 1 -1h4a1 1 0 0 1 1 1v3" />
  </symbol>

  <symbol id="ti-download" viewBox="0 0 24 24">
    <path d="M4 17v2a2 2 0 0 0 2 2h12a2 2 0 0 0 2 -2v-2" />
    <path d="M7 11l5 5l5 -5" />
    <path d="M12 4l0 12" />
  </symbol>

  <symbol id="ti-upload" viewBox="0 0 24 24">
    <path d="M4 17v2a2 2 0 0 0 2 2h12a2 2 0 0 0 2 -2v-2" />
    <path d="M7 9l5 -5l5 5" />
    <path d="M12 4l0 12" />
  </symbol>

  <symbol id="ti-search" viewBox="0 0 24 24">
    <path d="M10 10m-7 0a7 7 0 1 0 14 0a7 7 0 1 0 -14 0" />
    <path d="M21 21l-6 -6" />
  </symbol>

  <symbol id="ti-refresh" viewBox="0 0 24 24">
    <path d="M20 11a8.1 8.1 0 0 0 -15.5 -2m-.5 -4v4h4" />
    <path d="M4 13a8.1 8.1 0 0 0 15.5 2m.5 4v-4h-4" />
  </symbol>

  <!-- Recording icons -->
  <symbol id="ti-circle" viewBox="0 0 24 24">
    <circle cx="12" cy="12" r="9" />
  </symbol>

  <symbol id="ti-player-stop" viewBox="0 0 24 24">
    <rect x="5" y="5" width="14" height="14" rx="2" />
  </symbol>

  <symbol id="ti-microphone" viewBox="0 0 24 24">
    <path d="M9 2m0 3a3 3 0 0 1 3 -3h0a3 3 0 0 1 3 3v5a3 3 0 0 1 -3 3h0a3 3 0 0 1 -3 -3z" />
    <path d="M5 10a7 7 0 0 0 14 0" />
    <path d="M8 21l8 0" />
    <path d="M12 17l0 4" />
  </symbol>

  <!-- PiP (Picture-in-Picture) / floating panel -->
  <symbol id="ti-picture-in-picture" viewBox="0 0 24 24">
    <path d="M11 19h-6a2 2 0 0 1 -2 -2v-10a2 2 0 0 1 2 -2h14a2 2 0 0 1 2 2v4" />
    <rect x="14" y="14" width="7" height="5" rx="1" />
  </symbol>

  <!-- OSC broadcast icons -->
  <symbol id="ti-broadcast" viewBox="0 0 24 24">
    <path d="M18.364 19.364a9 9 0 1 0 -12.728 0" />
    <path d="M15.536 16.536a5 5 0 1 0 -7.072 0" />
    <path d="M11 13a1 1 0 1 0 2 0a1 1 0 1 0 -2 0" />
  </symbol>

  <symbol id="ti-broadcast-off" viewBox="0 0 24 24">
    <path d="M18.364 19.364a9 9 0 0 0 -9.721 -14.717m-2.488 1.509a9 9 0 0 0 -.519 13.208" />
    <path d="M15.536 16.536a5 5 0 0 0 -3.536 -8.536m-3 1a5 5 0 0 0 -.535 7.536" />
    <path d="M12 12a1 1 0 1 0 1 1" />
    <path d="M3 3l18 18" />
  </symbol>

  <!-- Player icons for log window -->
  <symbol id="ti-player-play" viewBox="0 0 24 24">
    <path d="M7 4v16l13 -8l-13 -8" />
  </symbol>

  <!-- Undo/Redo icons -->
  <symbol id="ti-arrow-back-up" viewBox="0 0 24 24">
    <path d="M9 14l-4 -4l4 -4" />
    <path d="M5 10h11a4 4 0 1 1 0 8h-1" />
  </symbol>

  <symbol id="ti-arrow-forward-up" viewBox="0 0 24 24">
    <path d="M15 14l4 -4l-4 -4" />
    <path d="M19 10h-11a4 4 0 0 0 0 8h1" />
  </symbol>

  <symbol id="ti-player-pause" viewBox="0 0 24 24">
    <path d="M6 6a1 1 0 0 1 1 -1h2a1 1 0 0 1 1 1v12a1 1 0 0 1 -1 1h-2a1 1 0 0 1 -1 -1l0 -12" />
    <path d="M14 6a1 1 0 0 1 1 -1h2a1 1 0 0 1 1 1v12a1 1 0 0 1 -1 1h-2a1 1 0 0 1 -1 -1l0 -12" />
  </symbol>
</svg>
